<svg width="67" height="65" viewBox="0 0 67 65" fill="none" xmlns="http://www.w3.org/2000/svg">
<circle cx="28.9827" cy="28.9827" r="28.9827" fill="#F47920" fill-opacity="0.5" style="mix-blend-mode:multiply"/>
<path d="M23.4405 54.0313L21.4366 47.9673L19.4327 54.0313H13.2227L18.2092 58.2408L16.2011 64.7419L21.4366 60.7417L26.672 64.7419L24.6639 58.2408L29.6505 54.0313H23.4405ZM23.5012 60.1958L21.4366 58.6188L19.3719 60.1966L20.1515 57.6729L17.838 55.7188H20.6519L21.4366 53.3453L22.2213 55.7188H25.0352L22.7216 57.6721L23.5012 60.1958Z" fill="#1E48AF"/>
<path d="M66.7755 54.0313H60.5655L58.5616 47.9673L56.5577 54.0313H50.3477L55.3342 58.2408L53.3261 64.7419L58.5616 60.7417L63.797 64.7419L61.7889 58.2408L66.7755 54.0313ZM58.5616 58.6188L56.4969 60.1966L57.2765 57.6729L54.963 55.7188H57.7769L58.5616 53.3453L59.3463 55.7188H62.1602L59.8466 57.6721L60.6262 60.1958L58.5616 58.6188Z" fill="#1E48AF"/>
<path d="M46.6943 35.7582C49.1927 36.4813 50.9688 38.772 50.9688 41.4104V52.3438H52.6562V41.4104C52.6562 37.8034 50.0887 34.6714 46.5517 33.9643L45.1536 33.6842C44.5006 33.5534 43.9842 33.0489 43.8382 32.3983L43.5083 30.9268C44.282 30.3523 44.9089 29.5954 45.3274 28.7179H45.9062C47.7676 28.7179 49.2812 27.2042 49.2812 25.3429C49.2812 24.5827 49.0197 23.8883 48.5936 23.3238L48.8653 22.5087C49.1412 21.6819 49.2812 20.8196 49.2812 19.9471C49.2812 15.4786 45.6464 11.8438 41.1779 11.8438H38.8221C34.3536 11.8438 30.7188 15.4786 30.7188 19.9471C30.7188 20.8196 30.8588 21.6819 31.1347 22.5096L31.4064 23.3247C30.9803 23.8891 30.7188 24.5835 30.7188 25.3438C30.7188 27.2051 32.2324 28.7188 34.0938 28.7188H34.6717C35.0902 29.5963 35.718 30.3531 36.4908 30.9277L36.1609 32.3992C36.015 33.0497 35.4986 33.5543 34.8447 33.6851L33.4474 33.9652C29.9113 34.6714 27.3438 37.8034 27.3438 41.4104V52.3438H29.0312V41.4104C29.0312 38.772 30.8065 36.4813 33.3048 35.7582C33.6558 39.9592 35.788 43.8573 39.1562 46.4198V50.5204L37.9961 54.0312H31.7861L36.7727 58.2407L34.7645 64.7418L40 60.7416L45.2355 64.7418L43.2273 58.2407L48.2139 54.0312H42.0039L40.8438 50.5204V46.4282C44.2145 43.8657 46.3433 39.9609 46.6943 35.7582ZM40 44.9188C39.4727 44.5019 38.9799 44.0514 38.526 43.5645L38.9715 41.7834H41.0285L41.474 43.5645C41.0201 44.0514 40.5273 44.5019 40 44.9188ZM40.0034 37.5587L40 37.5646L39.9966 37.5596L40 37.5553L40.0034 37.5587ZM40 38.5484L41.3289 39.3458L41.0792 40.0959H38.92L38.6702 39.3458L40 38.5484ZM42.5658 40.9734L42.8114 40.2359L43.5429 40.6747C43.3193 41.1016 43.0696 41.5142 42.8004 41.915L42.5658 40.9734ZM37.1886 40.2351L37.4342 40.9725L37.1988 41.915C36.9304 41.5142 36.6798 41.1016 36.4562 40.6747L37.1886 40.2351ZM45.0119 35.3768C44.9283 36.6652 44.671 37.9249 44.2289 39.1171L41.4681 37.4608L44.3073 35.1895C44.4736 35.2519 44.6457 35.3034 44.8229 35.3388L45.0119 35.3768ZM45.9062 27.0312H45.8387C45.8784 26.7545 45.9062 26.4744 45.9062 26.1875V23.6562C46.8369 23.6562 47.5938 24.4131 47.5938 25.3438C47.5938 26.2744 46.8369 27.0312 45.9062 27.0312ZM38.8221 13.5312H41.1779C44.7157 13.5312 47.5938 16.4093 47.5938 19.9471C47.5938 20.6382 47.4832 21.3208 47.2647 21.9755L47.182 22.2227C46.788 22.0616 46.3577 21.9688 45.9062 21.9688H45.751C45.4017 20.9892 44.4736 20.2812 43.375 20.2812H41.6875C40.2919 20.2812 39.1562 19.1456 39.1562 17.75V15.2188H37.4688V17.75C37.4688 17.9517 37.4831 18.1499 37.5101 18.3432L36.2149 18.8612C34.9341 19.3734 34.1064 20.5918 34.0954 21.9688H34.0938C33.6423 21.9688 33.212 22.0616 32.818 22.2227L32.7353 21.9755C32.5168 21.3208 32.4062 20.6382 32.4062 19.9471C32.4062 16.4093 35.2843 13.5312 38.8221 13.5312ZM34.0938 27.0312C33.1631 27.0312 32.4062 26.2744 32.4062 25.3438C32.4062 24.4131 33.1631 23.6562 34.0938 23.6562V26.1875C34.0938 26.4744 34.1216 26.7545 34.1613 27.0312H34.0938ZM35.7812 26.1875V21.9949C35.7812 21.3005 36.1981 20.6854 36.8418 20.4281L38.0788 19.9336C38.8196 21.1528 40.1595 21.9688 41.6875 21.9688H43.375C43.8399 21.9688 44.2188 22.3476 44.2188 22.8125V26.1875C44.2188 28.5137 42.3262 30.4062 40 30.4062C37.6738 30.4062 35.7812 28.5137 35.7812 26.1875ZM40 32.0938C40.6893 32.0938 41.3483 31.9689 41.9642 31.7512L42.1921 32.7687C42.3102 33.2944 42.5532 33.7686 42.8831 34.1694L40 36.4745L37.1169 34.1685C37.446 33.7677 37.6898 33.2944 37.8071 32.7679L38.0349 31.7503C38.6517 31.9689 39.3107 32.0938 40 32.0938ZM35.6927 35.1895L38.5319 37.4608L35.7711 39.1171C35.329 37.9249 35.0725 36.6652 34.9881 35.3768L35.1763 35.3388C35.3543 35.3042 35.5264 35.2519 35.6927 35.1895ZM43.5986 55.7188L41.285 57.672L42.0647 60.1957L40 58.6187L37.9353 60.1965L38.715 57.6729L36.4014 55.7188H39.2153L40 53.3453L40.7847 55.7188H43.5986Z" fill="#1E48AF"/>
<path d="M57.7188 38.8438C62.3712 38.8438 66.1562 35.0587 66.1562 30.4062C66.1562 28.388 65.4424 26.5351 64.2561 25.0813L65.9124 23.4057L64.7117 22.2193L63.0647 23.8849C61.6093 22.6885 59.7463 21.9688 57.7188 21.9688C53.0663 21.9688 49.2812 25.7538 49.2812 30.4062C49.2812 35.0587 53.0663 38.8438 57.7188 38.8438ZM57.7188 23.6562C59.2847 23.6562 60.7233 24.1971 61.87 25.0948L56.135 30.8973L55.0474 29.8097L53.8544 31.0028L56.1418 33.2902L63.0588 26.293C63.9389 27.4337 64.4688 28.8571 64.4688 30.4062C64.4688 34.128 61.4405 37.1562 57.7188 37.1562C53.997 37.1562 50.9688 34.128 50.9688 30.4062C50.9688 26.6845 53.997 23.6562 57.7188 23.6562Z" fill="#1E48AF"/>
</svg>
