<svg width="26" height="24" viewBox="0 0 26 24" fill="none" xmlns="http://www.w3.org/2000/svg">
<path fill-rule="evenodd" clip-rule="evenodd" d="M20.7854 0H1.21458C0.543583 0 0 0.518875 0 1.15938V19.8415C0 20.4811 0.543583 21 1.21458 21H11.7517V12.8678H8.88433V9.6985H11.7517V7.36138C11.7517 4.64888 13.4869 3.17188 16.0224 3.17188C17.237 3.17188 18.2802 3.2585 18.5845 3.297V6.132L16.8263 6.13287C15.4477 6.13287 15.1809 6.7585 15.1809 7.6755V9.69938H18.469L18.0409 12.8686H15.1809V21H20.7873C21.4564 21 22 20.4811 22 19.8406V1.15938C22 0.518875 21.4564 0 20.7854 0Z" fill="white"/>
</svg>
