<svg width="75" height="66" viewBox="0 0 75 66" fill="none" xmlns="http://www.w3.org/2000/svg">
<circle cx="28.9827" cy="28.9827" r="28.9827" fill="#F47920" fill-opacity="0.5" style="mix-blend-mode:multiply"/>
<path d="M35 57.1748H36.7417V58.9398H35V57.1748Z" fill="#2656C9" style="mix-blend-mode:multiply"/>
<path d="M35 60.7056H36.7417V62.4705H35V60.7056Z" fill="#2656C9" style="mix-blend-mode:multiply"/>
<path d="M61.9987 39.5264C59.117 39.5264 56.7734 41.9011 56.7734 44.8213C56.7734 47.7414 59.117 50.1162 61.9987 50.1162C64.8804 50.1162 67.2239 47.7414 67.2239 44.8213C67.2239 41.9011 64.8804 39.5264 61.9987 39.5264ZM61.9987 48.3512C60.0775 48.3512 58.5152 46.7681 58.5152 44.8213C58.5152 42.8745 60.0775 41.2913 61.9987 41.2913C63.9198 41.2913 65.4822 42.8745 65.4822 44.8213C65.4822 46.7681 63.9198 48.3512 61.9987 48.3512Z" fill="#2656C9" style="mix-blend-mode:multiply"/>
<path d="M74.1896 11.2856H27.1623V28.9354C26.2017 28.9354 25.4206 29.727 25.4206 30.7004H24.5497C23.1093 30.7004 21.9371 31.8882 21.9371 33.3478V38.0559C20.7457 38.9004 20.1953 41.329 20.1953 42.1727C20.1953 43.6323 21.3675 44.8201 22.8079 44.8201C24.2484 44.8201 25.4206 43.6323 25.4206 42.1727C25.4206 41.329 24.8702 38.9004 23.6788 38.0559V33.3478C23.6788 32.8616 24.0698 32.4653 24.5497 32.4653H25.4206C25.4206 33.4387 26.2017 34.2303 27.1623 34.2303V37.4752L27.7092 37.6967C27.7502 37.7135 28.0105 37.8167 28.4164 37.9632C28.1647 38.7495 28.0332 39.5667 28.0332 40.4077C28.0332 43.259 29.5285 45.7565 31.7614 47.1578C25.1079 48.9943 20.1953 55.1541 20.1953 62.4699V65.9998H51.5468V62.4699C51.5468 55.1541 46.6342 48.9943 39.9807 47.1578C40.2603 46.9822 40.5311 46.7943 40.7863 46.5851H53.4636C53.9696 49.1002 55.538 51.2235 57.6673 52.466L56.6327 62.9464L61.9973 60.7729L67.361 62.9464L66.3264 52.466C68.4557 51.2226 70.0242 49.1002 70.5301 46.5851H74.1896V11.2856ZM22.8079 43.0552C22.3281 43.0552 21.9371 42.6589 21.9371 42.1727C21.9371 41.4437 22.4343 40.0229 22.8079 39.5993C23.1815 40.0221 23.6788 41.4437 23.6788 42.1727C23.6788 42.6589 23.2878 43.0552 22.8079 43.0552ZM27.1614 30.7004H27.1623H44.5798V32.4653H27.1623L27.1614 30.7004ZM42.8381 34.2303V36.2653C41.5892 36.7189 38.4428 37.7602 35.8711 37.7602C33.2994 37.7602 30.1529 36.7189 28.9041 36.2653V34.2303H42.8381ZM35.8711 53.3511L38.6326 57.0823L41.0963 52.0892V64.2349H30.6458V52.0892L33.1095 57.0823L35.8711 53.3511ZM44.5798 64.2349H42.8381V50.2607C43.4485 50.6198 44.032 51.0196 44.5798 51.4653V64.2349ZM40.3822 49.124C40.4475 49.147 40.5111 49.1726 40.5764 49.1964L38.3356 53.7386L37.0581 52.0124L40.3822 49.124ZM27.1623 51.4653C27.7101 51.0196 28.2936 50.6198 28.9041 50.2607V64.2349H27.1623V51.4653ZM33.4074 53.7377L31.1666 49.1955C31.231 49.1717 31.2955 49.1461 31.3608 49.1231L34.6849 52.0106L33.4074 53.7377ZM21.9371 62.4699C21.9371 58.9029 23.2599 55.65 25.4206 53.1623V64.2349H21.9371V62.4699ZM49.8051 62.4699V64.2349H46.3216V53.1623C48.4822 55.65 49.8051 58.9029 49.8051 62.4699ZM38.3278 48.5839L35.8711 50.7178L33.4143 48.5839C34.2129 48.4383 35.0315 48.3501 35.8711 48.3501C36.7106 48.3501 37.5292 48.4383 38.3278 48.5839ZM35.8711 46.5851C32.5095 46.5851 29.7749 43.8141 29.7749 40.4077C29.7749 39.7547 29.8777 39.1202 30.0719 38.5104C31.6917 38.9993 33.8933 39.5252 35.8711 39.5252C37.8488 39.5252 40.0504 38.9993 41.6702 38.5112C41.8644 39.1202 41.9672 39.7547 41.9672 40.4077C41.9672 43.8141 39.2326 46.5851 35.8711 46.5851ZM65.3423 60.2275L61.9973 58.872L58.6523 60.2284L59.3438 53.2232C60.1807 53.495 61.0716 53.645 61.9973 53.645C62.9231 53.645 63.814 53.495 64.6509 53.2232L65.3423 60.2275ZM61.9973 51.88C58.1559 51.88 55.0303 48.7128 55.0303 44.8201C55.0303 40.9275 58.1559 37.7602 61.9973 37.7602C65.8387 37.7602 68.9643 40.9275 68.9643 44.8201C68.9643 48.7128 65.8387 51.88 61.9973 51.88ZM72.4478 44.8201H70.7061C70.7061 39.9541 66.7993 35.9953 61.9973 35.9953C57.1953 35.9953 53.2886 39.9541 53.2886 44.8201H42.3835C43.2195 43.5573 43.7089 42.0394 43.7089 40.4077C43.7089 39.5667 43.5766 38.7486 43.3258 37.9641C43.7316 37.8176 43.9911 37.7144 44.0329 37.6976L44.5798 37.4752V34.2303C45.5404 34.2303 46.3216 33.4387 46.3216 32.4653V30.7004C46.3216 29.727 45.5404 28.9354 44.5798 28.9354H28.9041V13.0506H72.4478V44.8201Z" fill="#2656C9" style="mix-blend-mode:multiply"/>
<path d="M70.7087 14.8159H30.6484V23.6408H70.7087V14.8159ZM68.9669 21.8758H32.3902V16.5809H68.9669V21.8758Z" fill="#2656C9" style="mix-blend-mode:multiply"/>
<path d="M30.6484 25.4058H32.3902V27.1707H30.6484V25.4058Z" fill="#2656C9" style="mix-blend-mode:multiply"/>
<path d="M34.1289 25.4058H70.7057V27.1707H34.1289V25.4058Z" fill="#2656C9" style="mix-blend-mode:multiply"/>
<path d="M48.0664 28.9355H67.2257V30.7005H48.0664V28.9355Z" fill="#2656C9" style="mix-blend-mode:multiply"/>
<path d="M48.0664 32.4648H70.7092V34.2298H48.0664V32.4648Z" fill="#2656C9" style="mix-blend-mode:multiply"/>
<path d="M48.0664 35.9951H49.8082V37.7601H48.0664V35.9951Z" fill="#2656C9" style="mix-blend-mode:multiply"/>
<path d="M51.5469 35.9951H53.2886V37.7601H51.5469V35.9951Z" fill="#2656C9" style="mix-blend-mode:multiply"/>
</svg>
