<svg width="27" height="24" viewBox="0 0 27 24" fill="none" xmlns="http://www.w3.org/2000/svg">
<path fill-rule="evenodd" clip-rule="evenodd" d="M13.5205 2.163C16.8687 2.163 17.2658 2.175 18.5887 2.233C21.9871 2.381 23.5744 3.924 23.7291 7.152C23.7897 8.417 23.8012 8.797 23.8012 12.001C23.8012 15.206 23.7886 15.585 23.7291 16.85C23.5734 20.075 21.9902 21.621 18.5887 21.769C17.2658 21.827 16.8707 21.839 13.5205 21.839C10.1723 21.839 9.77519 21.827 8.45327 21.769C5.04657 21.62 3.46757 20.07 3.31291 16.849C3.2523 15.584 3.23976 15.205 3.23976 12C3.23976 8.796 3.25335 8.417 3.31291 7.151C3.46862 3.924 5.05179 2.38 8.45327 2.232C9.77624 2.175 10.1723 2.163 13.5205 2.163V2.163ZM13.5205 0C10.1148 0 9.68845 0.014 8.35085 0.072C3.79674 0.272 1.26575 2.69 1.05675 7.052C0.995099 8.333 0.980469 8.741 0.980469 12C0.980469 15.259 0.995099 15.668 1.05571 16.948C1.26471 21.306 3.79152 23.728 8.34981 23.928C9.68845 23.986 10.1148 24 13.5205 24C16.9261 24 17.3535 23.986 18.6911 23.928C23.2411 23.728 25.7783 21.31 25.9842 16.948C26.0458 15.668 26.0605 15.259 26.0605 12C26.0605 8.741 26.0458 8.333 25.9852 7.053C25.7804 2.699 23.2505 0.273 18.6922 0.073C17.3535 0.014 16.9261 0 13.5205 0ZM13.5205 5.838C9.96432 5.838 7.08116 8.597 7.08116 12C7.08116 15.403 9.96432 18.163 13.5205 18.163C17.0766 18.163 19.9597 15.404 19.9597 12C19.9597 8.597 17.0766 5.838 13.5205 5.838ZM13.5205 16C11.2121 16 9.34048 14.21 9.34048 12C9.34048 9.791 11.2121 8 13.5205 8C15.8289 8 17.7005 9.791 17.7005 12C17.7005 14.21 15.8289 16 13.5205 16ZM20.2147 4.155C19.3829 4.155 18.7089 4.8 18.7089 5.595C18.7089 6.39 19.3829 7.035 20.2147 7.035C21.0455 7.035 21.7185 6.39 21.7185 5.595C21.7185 4.8 21.0455 4.155 20.2147 4.155Z" fill="white"/>
<mask id="mask0" mask-type="alpha" maskUnits="userSpaceOnUse" x="0" y="0" width="27" height="24">
<path fill-rule="evenodd" clip-rule="evenodd" d="M13.5205 2.163C16.8687 2.163 17.2658 2.175 18.5887 2.233C21.9871 2.381 23.5744 3.924 23.7291 7.152C23.7897 8.417 23.8012 8.797 23.8012 12.001C23.8012 15.206 23.7886 15.585 23.7291 16.85C23.5734 20.075 21.9902 21.621 18.5887 21.769C17.2658 21.827 16.8707 21.839 13.5205 21.839C10.1723 21.839 9.77519 21.827 8.45327 21.769C5.04657 21.62 3.46757 20.07 3.31291 16.849C3.2523 15.584 3.23976 15.205 3.23976 12C3.23976 8.796 3.25335 8.417 3.31291 7.151C3.46862 3.924 5.05179 2.38 8.45327 2.232C9.77624 2.175 10.1723 2.163 13.5205 2.163V2.163ZM13.5205 0C10.1148 0 9.68845 0.014 8.35085 0.072C3.79674 0.272 1.26575 2.69 1.05675 7.052C0.995099 8.333 0.980469 8.741 0.980469 12C0.980469 15.259 0.995099 15.668 1.05571 16.948C1.26471 21.306 3.79152 23.728 8.34981 23.928C9.68845 23.986 10.1148 24 13.5205 24C16.9261 24 17.3535 23.986 18.6911 23.928C23.2411 23.728 25.7783 21.31 25.9842 16.948C26.0458 15.668 26.0605 15.259 26.0605 12C26.0605 8.741 26.0458 8.333 25.9852 7.053C25.7804 2.699 23.2505 0.273 18.6922 0.073C17.3535 0.014 16.9261 0 13.5205 0ZM13.5205 5.838C9.96432 5.838 7.08116 8.597 7.08116 12C7.08116 15.403 9.96432 18.163 13.5205 18.163C17.0766 18.163 19.9597 15.404 19.9597 12C19.9597 8.597 17.0766 5.838 13.5205 5.838ZM13.5205 16C11.2121 16 9.34048 14.21 9.34048 12C9.34048 9.791 11.2121 8 13.5205 8C15.8289 8 17.7005 9.791 17.7005 12C17.7005 14.21 15.8289 16 13.5205 16ZM20.2147 4.155C19.3829 4.155 18.7089 4.8 18.7089 5.595C18.7089 6.39 19.3829 7.035 20.2147 7.035C21.0455 7.035 21.7185 6.39 21.7185 5.595C21.7185 4.8 21.0455 4.155 20.2147 4.155Z" fill="white"/>
</mask>
<g mask="url(#mask0)">
</g>
</svg>
