<svg width="51" height="51" viewBox="0 0 51 51" fill="none" xmlns="http://www.w3.org/2000/svg">
<path d="M42.3579 44.0197H26.0664V4.10547H42.3579V44.0197Z" fill="#F47920"/>
<path d="M46.4306 45.6489V20.4313C46.4306 19.0652 45.3195 17.9534 43.9528 17.9534H42.3579V19.5825H43.9528C44.4204 19.5825 44.8015 19.9629 44.8015 20.4313V45.6489H5.70193V20.4313C5.70193 19.9629 6.0832 19.5825 6.55065 19.5825H8.14557V42.3906H7.33091V44.0198H8.14557H24.4371H43.1723V42.3906H24.4372V19.5825H26.0664V17.9534H24.4372V8.73633L8.14574 13.2613V17.9532H6.55065C5.18373 17.9532 4.07278 19.065 4.07278 20.4311V45.6488H0V48.3457C0 49.5538 0.982355 50.5362 2.19044 50.5362H48.3125C49.5212 50.5362 50.5036 49.5538 50.5036 48.3457V45.6488L46.4306 45.6489ZM9.77489 14.4996L22.8081 10.8788V42.3906H9.77489V14.4996ZM48.8745 48.3459C48.8745 48.6554 48.622 48.9072 48.3132 48.9072H2.19027C1.88147 48.9072 1.62897 48.6556 1.62897 48.3459V47.2781H4.07278H46.4306H48.8745V48.3459Z" fill="white"/>
<path d="M29.3245 3.09043L34.2119 1.69431L39.0994 3.09043V4.10545H40.7285V1.86218L34.2119 0L27.6953 1.86218V4.10545H29.3245V3.09043Z" fill="white"/>
<path d="M31.7698 7.36377H30.1406V8.99292H31.7698V7.36377Z" fill="white"/>
<path d="M35.0276 7.36377H33.3984V8.99292H35.0276V7.36377Z" fill="white"/>
<path d="M38.2854 7.36377H36.6562V8.99292H38.2854V7.36377Z" fill="white"/>
<path d="M31.7698 10.6221H30.1406V12.2512H31.7698V10.6221Z" fill="white"/>
<path d="M35.0276 10.6221H33.3984V12.2512H35.0276V10.6221Z" fill="white"/>
<path d="M38.2854 10.6221H36.6562V12.2512H38.2854V10.6221Z" fill="white"/>
<path d="M31.7698 13.8804H30.1406V15.5095H31.7698V13.8804Z" fill="white"/>
<path d="M35.0276 13.8804H33.3984V15.5095H35.0276V13.8804Z" fill="white"/>
<path d="M38.2854 13.8804H36.6562V15.5095H38.2854V13.8804Z" fill="white"/>
<path d="M31.7698 17.1387H30.1406V18.7678H31.7698V17.1387Z" fill="white"/>
<path d="M35.0276 17.1387H33.3984V18.7678H35.0276V17.1387Z" fill="white"/>
<path d="M38.2854 17.1387H36.6562V18.7678H38.2854V17.1387Z" fill="white"/>
<path d="M31.7698 20.397H30.1406V22.0261H31.7698V20.397Z" fill="white"/>
<path d="M35.0276 20.397H33.3984V22.0261H35.0276V20.397Z" fill="white"/>
<path d="M38.2854 20.397H36.6562V22.0261H38.2854V20.397Z" fill="white"/>
<path d="M31.7698 23.6553H30.1406V25.2844H31.7698V23.6553Z" fill="white"/>
<path d="M35.0276 23.6553H33.3984V25.2844H35.0276V23.6553Z" fill="white"/>
<path d="M38.2854 23.6553H36.6562V25.2844H38.2854V23.6553Z" fill="white"/>
<path d="M31.7698 26.9136H30.1406V28.5427H31.7698V26.9136Z" fill="white"/>
<path d="M35.0276 26.9136H33.3984V28.5427H35.0276V26.9136Z" fill="white"/>
<path d="M38.2854 26.9136H36.6562V28.5427H38.2854V26.9136Z" fill="white"/>
<path d="M31.7698 30.1719H30.1406V31.801H31.7698V30.1719Z" fill="white"/>
<path d="M35.0276 30.1719H33.3984V31.801H35.0276V30.1719Z" fill="white"/>
<path d="M38.2854 30.1719H36.6562V31.801H38.2854V30.1719Z" fill="white"/>
<path d="M31.7698 33.4302H30.1406V35.0593H31.7698V33.4302Z" fill="white"/>
<path d="M35.0276 33.4302H33.3984V35.0593H35.0276V33.4302Z" fill="white"/>
<path d="M38.2854 33.4302H36.6562V35.0593H38.2854V33.4302Z" fill="white"/>
<path d="M31.7698 36.6885H30.1406V38.3176H31.7698V36.6885Z" fill="white"/>
<path d="M35.0276 36.6885H33.3984V38.3176H35.0276V36.6885Z" fill="white"/>
<path d="M38.2854 36.6885H36.6562V38.3176H38.2854V36.6885Z" fill="white"/>
<path d="M17.1057 13.8804H15.4766V15.5095H17.1057V13.8804Z" fill="white"/>
<path d="M20.3635 13.8804H18.7344V15.5095H20.3635V13.8804Z" fill="white"/>
<path d="M13.8479 17.1387H12.2188V18.7678H13.8479V17.1387Z" fill="white"/>
<path d="M17.1057 17.1387H15.4766V18.7678H17.1057V17.1387Z" fill="white"/>
<path d="M20.3635 17.1387H18.7344V18.7678H20.3635V17.1387Z" fill="white"/>
<path d="M13.8479 20.397H12.2188V22.0261H13.8479V20.397Z" fill="white"/>
<path d="M17.1057 20.397H15.4766V22.0261H17.1057V20.397Z" fill="white"/>
<path d="M20.3635 20.397H18.7344V22.0261H20.3635V20.397Z" fill="white"/>
<path d="M13.8479 23.6553H12.2188V25.2844H13.8479V23.6553Z" fill="white"/>
<path d="M17.1057 23.6553H15.4766V25.2844H17.1057V23.6553Z" fill="white"/>
<path d="M20.3635 23.6553H18.7344V25.2844H20.3635V23.6553Z" fill="white"/>
<path d="M13.8479 26.9136H12.2188V28.5427H13.8479V26.9136Z" fill="white"/>
<path d="M17.1057 26.9136H15.4766V28.5427H17.1057V26.9136Z" fill="white"/>
<path d="M20.3635 26.9136H18.7344V28.5427H20.3635V26.9136Z" fill="white"/>
<path d="M13.8479 30.1719H12.2188V31.801H13.8479V30.1719Z" fill="white"/>
<path d="M17.1057 30.1719H15.4766V31.801H17.1057V30.1719Z" fill="white"/>
<path d="M20.3635 30.1719H18.7344V31.801H20.3635V30.1719Z" fill="white"/>
<path d="M13.8479 33.4302H12.2188V35.0593H13.8479V33.4302Z" fill="white"/>
<path d="M17.1057 33.4302H15.4766V35.0593H17.1057V33.4302Z" fill="white"/>
<path d="M20.3635 33.4302H18.7344V35.0593H20.3635V33.4302Z" fill="white"/>
<path d="M13.8479 36.6885H12.2188V38.3176H13.8479V36.6885Z" fill="white"/>
<path d="M17.1057 36.6885H15.4766V38.3176H17.1057V36.6885Z" fill="white"/>
<path d="M20.3635 36.6885H18.7344V38.3176H20.3635V36.6885Z" fill="white"/>
</svg>
