<svg width="28" height="50" viewBox="0 0 28 50" fill="none" xmlns="http://www.w3.org/2000/svg">
<path d="M19.1808 31.9055L18.7368 30.9541H13.8493H8.96189L8.51789 31.9055C5.52113 38.3269 7.8141 45.9749 13.8493 49.6894C19.8847 45.9749 22.1777 38.3269 19.1808 31.9055Z" fill="#F47920"/>
<path d="M27.0397 34.6333L26.0165 26.4518L21.9517 23.2001C21.9729 23.0713 21.9917 22.9419 21.9917 22.8083C21.9917 21.7477 21.3082 20.8517 20.3625 20.5144V18.9244C22.9203 16.9212 24.4355 13.8366 24.4355 10.5896C24.4355 4.75068 19.6848 0 13.8459 0C8.00706 0 3.25655 4.75068 3.25655 10.5897C3.25655 13.8374 4.7717 16.9214 7.32951 18.9245V20.5146C6.38382 20.8519 5.70036 21.7479 5.70036 22.8084C5.70036 22.9421 5.71913 23.0715 5.74033 23.1994L1.67554 26.4511L0.652344 34.6327L8.33132 31.7532C9.09542 34.5293 10.8931 37.122 13.363 38.9402L13.8461 39.297L14.3292 38.9411C16.7991 37.123 18.5977 34.5301 19.3609 31.7541L27.0397 34.6333ZM19.548 26.0665C19.548 26.5154 19.1831 26.8812 18.7334 26.8812H8.95848C8.50875 26.8812 8.14382 26.5154 8.14382 26.0665C8.14382 25.6177 8.50875 25.2519 8.95848 25.2519H18.7334C19.1831 25.2521 19.548 25.6177 19.548 26.0665ZM8.14399 29.3248C8.14399 28.876 8.50892 28.5102 8.95866 28.5102H18.7335C19.1831 28.5102 19.5482 28.876 19.5482 29.3248C19.5482 29.7737 19.1833 30.1395 18.7335 30.1395H8.95866C8.50892 30.1395 8.14399 29.7737 8.14399 29.3248ZM25.0896 32.1621L20.8286 30.5639C21.0444 30.1989 21.1772 29.7786 21.1772 29.3248C21.1772 28.6968 20.932 28.1291 20.5419 27.6957C20.9329 27.2623 21.1772 26.6946 21.1772 26.0665C21.1772 25.6292 21.0526 25.2243 20.8505 24.8684C20.9563 24.8016 21.0533 24.7234 21.1469 24.6411L24.4834 27.3104L25.0896 32.1621ZM4.8857 10.5897C4.8857 5.64928 8.90565 1.62932 13.8461 1.62932C18.7865 1.62932 22.8065 5.64928 22.8065 10.5897C22.8065 13.4555 21.4104 16.1728 19.0717 17.8574L18.7337 18.101V20.3648H17.1046V12.2189H17.9192C19.2665 12.2189 20.363 11.1225 20.363 9.77506C20.363 8.42761 19.2667 7.33125 17.9192 7.33125C16.5719 7.33125 15.4754 8.42761 15.4754 9.77506V10.5897H12.2171V9.77506C12.2171 8.42778 11.1208 7.33125 9.77332 7.33125C8.42586 7.33125 7.32951 8.42761 7.32951 9.77506C7.32951 11.1225 8.42586 12.2189 9.77332 12.2189H10.588V20.3646H8.95883V18.1008L8.62083 17.8572C6.28199 16.1728 4.8857 13.4553 4.8857 10.5897ZM12.217 20.3646V12.2189H15.4752V20.3646H12.217ZM17.1044 10.5897V9.77506C17.1044 9.3262 17.4693 8.9604 17.9191 8.9604C18.3688 8.9604 18.7337 9.3262 18.7337 9.77506C18.7337 10.2239 18.3688 10.5897 17.9191 10.5897H17.1044ZM10.5878 10.5897H9.77314C9.32341 10.5897 8.95848 10.2239 8.95848 9.77506C8.95848 9.3262 9.32341 8.9604 9.77314 8.9604C10.2229 8.9604 10.5878 9.3262 10.5878 9.77506V10.5897ZM8.14399 21.9938H8.95866H18.7335H19.5482C19.9978 21.9938 20.3629 22.3596 20.3629 22.8084C20.3629 23.2573 19.9979 23.6231 19.5482 23.6231H18.7335H8.95866H8.14399C7.69426 23.6231 7.32933 23.2573 7.32933 22.8084C7.32933 22.3596 7.69444 21.9938 8.14399 21.9938ZM3.20859 27.3104L6.54508 24.6411C6.63875 24.7233 6.73571 24.8008 6.84154 24.8684C6.63944 25.2243 6.51484 25.6292 6.51484 26.0665C6.51484 26.6946 6.76004 27.2623 7.15017 27.6957C6.75917 28.1291 6.51484 28.6968 6.51484 29.3248C6.51484 29.7786 6.64761 30.1989 6.86431 30.5639L2.60333 32.1621L3.20859 27.3104ZM13.8461 37.2548C12.0427 35.7853 10.6936 33.8458 10.0208 31.7687H17.6721C16.9984 33.8465 15.6495 35.786 13.8461 37.2548Z" fill="white"/>
<path d="M24.4377 37.4707H22.8086V46.4311H24.4377V37.4707Z" fill="white"/>
<path d="M24.4377 48.0601H22.8086V49.6892H24.4377V48.0601Z" fill="white"/>
<path d="M27.6956 36.6562H26.0664V43.9875H27.6956V36.6562Z" fill="white"/>
<path d="M27.6956 45.6162H26.0664V48.06H27.6956V45.6162Z" fill="white"/>
<path d="M4.88696 37.4707H3.25781V48.0603H4.88696V37.4707Z" fill="white"/>
<path d="M1.62915 36.6562H0V44.802H1.62915V36.6562Z" fill="white"/>
<path d="M1.62915 46.4312H0V48.0603H1.62915V46.4312Z" fill="white"/>
</svg>
