<svg width="19" height="18" viewBox="0 0 19 18" fill="none" xmlns="http://www.w3.org/2000/svg">
<path d="M4.53976 2.09983C4.53976 3.26396 3.66413 4.19712 2.25635 4.19712H2.23012C0.874788 4.19797 0 3.26311 0 2.09983C0 0.907784 0.902707 5.90312e-07 2.28257 5.90312e-07C3.66413 -0.000845433 4.51438 0.907784 4.53976 2.09983ZM0.236887 17.9992H4.27411V5.85618H0.236887V17.9992ZM14.1827 5.57191C12.0415 5.57191 11.0829 6.74789 10.544 7.57699V7.61591H10.5178C10.5279 7.60406 10.5372 7.59052 10.544 7.57699V5.85702H6.50761C6.56007 6.99492 6.50761 18 6.50761 18H10.544V11.2183C10.544 10.8528 10.5685 10.4949 10.6768 10.2335C10.9695 9.511 11.6345 8.7555 12.7462 8.7555C14.209 8.7555 14.7936 9.8714 14.7936 11.5025V18H18.8299V11.0381C18.8308 7.30542 16.8376 5.57191 14.1827 5.57191Z" fill="white"/>
</svg>
