<svg width="324" height="77" viewBox="0 0 324 77" fill="none" xmlns="http://www.w3.org/2000/svg">
<path d="M48.2706 0L49.3158 3.07635H52.7057L49.9619 4.97911L51.0144 8.06241L48.2706 6.15965L45.5341 8.06241L46.5793 4.97911L43.8428 3.07635H47.2253L48.2706 0Z" fill="white"/>
<path d="M5.80699 36.583C5.80751 32.3963 6.91045 28.2772 9.014 24.6058C11.1176 20.9345 14.1539 17.8293 17.8428 15.5769C21.5318 13.3245 25.7543 11.9974 30.1208 11.7181C34.4873 11.4389 38.857 12.2164 42.8264 13.9791H42.9934L42.9498 14.0138C44.1919 14.5762 45.386 15.231 46.5211 15.9721C47.0259 14.531 47.3595 13.0402 47.5156 11.5277V11.1805C41.0804 7.52048 33.4728 6.22644 26.1133 7.54C18.7539 8.85356 12.1458 12.6849 7.52299 18.3186C2.90022 23.9523 0.578859 31.0031 0.9924 38.1544C1.40594 45.3057 4.52611 52.0685 9.77024 57.18C10.7574 57.0827 11.7228 56.9647 12.6302 56.8119C13.719 56.6244 14.7279 56.4022 15.7006 56.1175C12.6172 53.787 10.1254 50.8189 8.41193 47.4358C6.69848 44.0527 5.8079 40.3423 5.80699 36.583Z" fill="#FF6D00"/>
<path d="M58.171 57.2609L57.3435 58.0734L55.057 55.8859C57.8468 52.8443 59.9513 49.2852 61.2391 45.4307C62.527 41.5762 62.9706 37.5091 62.5421 33.4833C62.1137 29.4575 60.8225 25.5595 58.7491 22.0324C56.6756 18.5053 53.8645 15.425 50.4912 12.9836C50.8437 14.2593 51.0194 15.5738 51.0139 16.8933C51.0139 17.7961 50.9413 18.6364 50.8687 19.435C54.8028 23.4482 57.2387 28.5938 57.7967 34.0698C58.3547 39.5459 57.0036 45.0447 53.9538 49.7093C50.9041 54.374 46.327 57.9424 40.936 59.8585C35.545 61.7746 29.6428 61.9307 24.1494 60.3025C21.9063 60.9148 19.5977 61.2806 17.2681 61.3928C16.6511 61.3928 16.0414 61.4345 15.4316 61.4414C20.5989 64.5611 26.6208 66.1367 32.7283 65.9673C38.8359 65.7978 44.7522 63.8909 49.7218 60.49L52.2624 62.9206L51.4131 63.7261L64.261 76.0176L71.0189 69.5524L58.171 57.2609Z" fill="white"/>
<path d="M25.7176 19.4441C25.7975 19.4441 25.8265 19.4094 25.8265 19.3469C25.8265 19.1246 25.9499 19.0552 26.1314 19.0066C26.3128 18.958 26.3128 18.9302 26.4 18.9094C26.4529 18.9024 26.5067 18.9024 26.5596 18.9094V18.958C26.4948 19.0054 26.4241 19.045 26.3491 19.076C26.2582 19.0945 26.1785 19.1462 26.1269 19.2202C26.0754 19.2941 26.0561 19.3845 26.0733 19.4719C26.0805 19.5062 26.0805 19.5417 26.0733 19.576C25.9356 20.4281 25.8845 21.2909 25.9209 22.1524C25.9209 22.1524 25.9209 22.1871 25.9209 22.201C25.9311 22.5756 26.0046 22.9461 26.1386 23.2982C26.1386 23.2982 26.1967 23.3885 26.2403 23.3954C26.4853 23.4426 26.7386 23.4325 26.9787 23.366C27.2188 23.2996 27.4386 23.1786 27.6194 23.0135C27.6387 22.9945 27.6528 22.9713 27.6604 22.9458C27.668 22.9204 27.6689 22.8935 27.663 22.8677C27.4089 21.8121 27.1403 20.7843 26.8718 19.701C26.8718 19.6246 26.8355 19.5413 26.8137 19.458C26.7919 19.3746 26.8137 19.3469 26.8863 19.3121L27.242 19.1246L27.8009 18.826C27.8173 18.8806 27.8132 18.939 27.7894 18.991C27.7655 19.043 27.7233 19.0854 27.6702 19.1108C27.467 19.2358 27.271 19.3746 27.0387 19.5274C27.2347 19.5274 27.3944 19.5274 27.5541 19.5274L32.5844 19.5621C32.6539 19.562 32.7219 19.5427 32.7804 19.5066L34.1886 18.6177C35.2677 17.9464 36.3371 17.252 37.3969 16.5344C38.1954 15.9927 38.9938 15.4372 39.7778 14.8747L39.9229 14.7636H39.8068L37.7889 14.6108L31.2125 14.1316C31.1568 14.1257 31.1004 14.1306 31.0467 14.1461C30.9931 14.1616 30.9433 14.1874 30.9004 14.2219L24.3675 19.083L23.9901 19.3677H24.0336L25.7176 19.4441ZM48.706 11.6108C48.2918 15.5442 46.7884 19.3006 44.3508 22.4927C44.0531 22.8677 43.7338 23.2357 43.3853 23.5968C41.863 25.1661 40.0232 26.423 37.9776 27.2912C38.9741 26.2948 39.5303 24.9689 39.5303 23.5899C39.5303 22.2108 38.9741 20.885 37.9776 19.8885C37.976 19.782 37.9564 19.6765 37.9195 19.576C37.6945 18.8816 37.484 18.1872 37.2663 17.4927L37.2372 17.3608L37.0993 17.4511L32.9909 20.0621C32.9383 20.101 32.8755 20.1251 32.8094 20.1316L28.5921 20.0969H27.6557L27.7065 20.2496C27.917 20.9441 28.142 21.6385 28.3525 22.3329C28.374 22.4051 28.4032 22.4749 28.4396 22.5413C28.3961 22.7565 28.3598 22.9718 28.338 23.194C28.2317 24.4799 28.6136 25.7593 29.4136 26.7976C30.2135 27.8358 31.3779 28.5634 32.6933 28.8468L32.461 28.8884C30.3269 29.1454 28.0041 29.312 25.6959 29.5829L24.803 29.6801C23.4094 29.8467 22.0157 30.0481 20.6801 30.3259C19.9905 30.4648 19.3082 30.6315 18.6549 30.819C14.3868 32.0481 10.9534 34.3467 9.89363 39.1522C11.694 37.4071 13.8512 36.036 16.2305 35.1245C17.9879 34.4344 19.8773 34.1055 21.7761 34.1592C23.3785 34.2409 24.9511 34.6059 26.4145 35.2356C33.5498 38.2772 33.6151 51.9993 17.4717 56.8881C15.9589 57.3386 14.4167 57.6935 12.8552 57.9506C8.60724 58.6137 4.29243 58.7955 0 58.4923C4.14391 59.543 8.39186 60.1737 12.6737 60.3742C14.1802 60.447 15.6895 60.447 17.1959 60.3742C22.4367 60.0825 27.7356 58.77 31.2343 55.284C30.6923 57.0245 30.0575 58.7374 29.3325 60.4158C30.6555 60.5619 31.9906 60.5805 33.3175 60.4714C33.724 59.9575 34.0942 59.4297 34.4281 58.9089C35.855 56.2287 36.8976 53.3767 37.5276 50.4298C37.5276 50.4298 34.1087 53.6312 32.4465 54.0479C32.4465 54.0479 41.7158 45.416 42.6087 32.1384C45.2321 30.1811 47.266 27.5932 48.5027 24.6385C49.0624 23.2855 49.4215 21.8644 49.5698 20.4163C49.8311 17.8399 50.1795 14.9302 48.706 11.6108Z" fill="white"/>
<path d="M80.7929 40.6516C81.7766 40.5499 82.7602 40.482 83.7438 40.482C84.6936 40.482 85.6772 40.5499 86.6608 40.6516C86.3217 36.9884 86.2877 33.1556 86.2877 29.0854C86.2877 24.8116 86.3556 20.911 86.6608 17.4852C85.7111 17.6209 84.7275 17.6887 83.7438 17.6887C82.7602 17.6887 81.7766 17.6209 80.7929 17.4852C81.0982 20.8431 81.166 24.7438 81.166 29.0854C81.166 32.9521 81.1321 36.7849 80.7929 40.6516ZM91.6212 40.6516C92.4352 40.5499 93.2493 40.482 94.0972 40.482C94.9113 40.482 95.7593 40.5499 96.5733 40.6516C96.4037 37.1241 96.3359 34.4106 96.3359 32.5111C96.3359 28.7462 97.0142 26.9146 99.219 26.9146C101.695 26.9146 101.932 28.7462 101.932 32.7486C101.932 36.1744 101.831 38.82 101.661 40.6516C102.509 40.5499 103.323 40.482 104.171 40.482C105.019 40.482 105.867 40.5499 106.715 40.6516C106.545 38.7861 106.478 36.8866 106.478 34.9194C106.478 33.0199 106.511 31.5953 106.511 30.6795C106.511 28.5087 106.478 26.9146 105.46 25.7274C104.544 24.6759 103.154 24.0654 101.458 24.0654C99.3207 24.0654 97.6248 24.9473 96.2341 26.7789V24.4046C95.4879 24.5063 94.7417 24.5403 93.9616 24.5403C93.1814 24.5403 92.4013 24.5063 91.6212 24.4046C91.7908 26.9146 91.8925 29.6281 91.8925 32.5451C91.8925 35.1907 91.7908 37.8703 91.6212 40.6516ZM111.746 26.3719V28.1696C111.746 32.7146 111.645 35.5299 111.645 36.5814C111.645 39.4984 113.205 41.0586 116.088 41.0586C117.343 41.0586 118.598 40.7194 119.989 40.1089V38.8539C119.208 39.0574 118.564 39.1931 118.021 39.1931C116.224 39.1931 116.156 37.6329 116.156 33.4948V32.138C116.156 30.4421 116.224 28.5427 116.291 26.3719C117.75 26.3719 118.869 26.3719 119.649 26.4058C119.615 26.1005 119.582 25.8292 119.582 25.5239C119.582 25.2525 119.615 24.9473 119.649 24.642C118.53 24.7438 117.445 24.7777 116.359 24.7777V23.7262C116.359 22.8104 116.427 21.0806 116.563 18.5027L116.19 18.2314C114.901 18.8758 113.374 19.5542 111.611 20.1987C111.712 21.1823 111.78 22.2677 111.78 23.4549C111.78 23.8958 111.78 24.3367 111.746 24.7777H111.373C110.797 24.7777 110.152 24.7098 109.44 24.642C109.508 24.9473 109.542 25.2525 109.542 25.5239C109.542 25.8292 109.508 26.1005 109.44 26.4058C110.05 26.3719 110.593 26.3719 111.136 26.3719H111.746ZM126.408 30.917V30.6117C126.408 27.2198 127.595 25.4561 129.529 25.4561C131.259 25.4561 132.174 27.0163 132.174 30.1029C132.174 30.3064 132.14 30.5778 132.14 30.917H126.408ZM126.408 32.579H136.787C136.821 32.2059 136.821 31.8328 136.821 31.4936C136.821 26.6432 134.243 23.9976 129.597 23.9976C124.577 23.9976 121.456 27.4573 121.456 32.2737C121.456 37.7685 124.611 41.0586 129.902 41.0586C132.208 41.0586 134.142 40.482 135.498 39.5323L136.245 37.5989L135.905 37.3615C134.549 38.4469 133.124 38.9557 131.564 38.9557C128.477 38.9557 126.408 36.5814 126.408 32.579ZM140.138 40.6516C140.986 40.5499 141.8 40.482 142.648 40.482C143.496 40.482 144.344 40.5499 145.158 40.6516C144.988 38.7522 144.853 36.2761 144.853 33.2913C144.853 30.0351 145.735 28.4748 148.041 28.4748C148.686 28.4748 149.432 28.6783 150.246 28.9836C150.11 28.1356 150.042 27.2877 150.042 26.4397C150.042 25.6257 150.11 24.8116 150.246 23.9976H150.076C147.465 23.9976 145.667 25.6257 144.853 28.7462H144.683C144.683 27.6269 144.751 26.1684 144.853 24.4046C144.073 24.5063 143.293 24.5403 142.512 24.5403C141.698 24.5403 140.918 24.5063 140.138 24.4046C140.342 26.6771 140.376 29.3567 140.376 32.5111C140.376 35.5299 140.308 38.2434 140.138 40.6516ZM153.396 40.6516C154.21 40.5499 155.024 40.482 155.872 40.482C156.686 40.482 157.534 40.5499 158.348 40.6516C158.178 37.1241 158.11 34.4106 158.11 32.5111C158.11 28.7462 158.789 26.9146 160.993 26.9146C163.469 26.9146 163.707 28.7462 163.707 32.7486C163.707 36.1744 163.605 38.82 163.435 40.6516C164.283 40.5499 165.097 40.482 165.945 40.482C166.793 40.482 167.641 40.5499 168.489 40.6516C168.32 38.7861 168.252 36.8866 168.252 34.9194C168.252 33.0199 168.286 31.5953 168.286 30.6795C168.286 28.5087 168.252 26.9146 167.234 25.7274C166.319 24.6759 164.928 24.0654 163.232 24.0654C161.095 24.0654 159.399 24.9473 158.008 26.7789V24.4046C157.262 24.5063 156.516 24.5403 155.736 24.5403C154.956 24.5403 154.176 24.5063 153.396 24.4046C153.565 26.9146 153.667 29.6281 153.667 32.5451C153.667 35.1907 153.565 37.8703 153.396 40.6516ZM173.08 36.0048C172.876 37.8364 172.741 39.0914 172.639 39.7697C174.063 40.7194 175.691 41.0926 177.693 41.0926C181.593 41.0926 184.137 38.7182 184.137 35.3264C184.137 32.3076 182.17 31.5275 178.608 30.1368C176.709 29.3906 175.725 28.9497 175.725 27.6269C175.725 26.4397 176.709 25.5239 178.168 25.5239C179.863 25.5239 181.186 26.5754 182.17 28.6444H182.509C182.713 27.4912 183.052 26.4397 183.493 25.4561C181.966 24.5063 180.372 24.0315 178.608 24.0315C174.776 24.0315 172.401 26.304 172.401 29.5602C172.401 31.9345 173.758 33.0538 176.505 34.2071C179.015 35.2585 180.474 35.6995 180.474 37.2258C180.474 38.6504 179.558 39.4984 177.93 39.4984C175.929 39.4984 174.301 38.2434 173.555 36.0048H173.08ZM188.157 40.6516C188.971 40.5499 189.785 40.482 190.633 40.482C191.447 40.482 192.295 40.5499 193.109 40.6516C192.94 37.1241 192.872 34.4106 192.872 32.5111C192.872 28.7462 193.55 26.9146 195.755 26.9146C198.231 26.9146 198.469 28.7462 198.469 32.7486C198.469 36.1744 198.367 38.82 198.197 40.6516C199.045 40.5499 199.859 40.482 200.707 40.482C201.521 40.482 202.369 40.5499 203.217 40.6516C203.048 38.7861 203.014 36.8866 203.014 34.9194C203.014 33.0199 203.048 31.5953 203.048 30.6795C203.048 28.5087 202.98 26.9146 201.962 25.7274C201.046 24.6759 199.69 24.0654 197.994 24.0654C195.755 24.0654 193.991 25.0151 192.77 26.8806V21.6233C192.77 19.2829 192.872 17.146 193.109 15.2126C192.295 15.3822 191.481 15.484 190.633 15.484C189.819 15.484 189.005 15.3822 188.157 15.2126C188.395 18.7402 188.429 23.1835 188.429 28.5766C188.429 33.7322 188.395 37.7346 188.157 40.6516ZM207.877 18.3331C207.877 19.7577 208.996 20.877 210.421 20.877C211.846 20.877 212.999 19.7577 212.999 18.3331C212.999 16.9086 211.879 15.7553 210.455 15.7553C208.996 15.7553 207.877 16.9086 207.877 18.3331ZM207.877 40.6516C208.725 40.5499 209.573 40.482 210.421 40.482C211.303 40.482 212.151 40.5499 212.965 40.6516C212.795 37.8703 212.694 35.1907 212.694 32.5451C212.694 29.6281 212.795 26.9146 212.965 24.4046C212.151 24.5063 211.303 24.5403 210.421 24.5403C209.573 24.5403 208.725 24.5063 207.877 24.4046C208.047 26.9146 208.148 29.6281 208.148 32.5451C208.148 35.1907 208.047 37.8703 207.877 40.6516ZM222.371 32.6129C222.371 28.407 223.423 26.2701 225.56 26.2701C227.9 26.2701 228.85 28.3731 228.85 32.6129C228.85 36.9206 228.002 38.9218 225.661 38.9218C223.355 38.9218 222.371 36.8527 222.371 32.6129ZM222.439 38.6843C223.355 40.3463 224.813 41.0586 227.086 41.0586C231.258 41.0586 233.836 37.972 233.836 32.5451C233.836 27.3216 231.224 23.9976 227.357 23.9976C225.254 23.9976 223.694 24.7777 222.371 26.5075V24.4046C221.591 24.5063 220.811 24.5403 220.031 24.5403C219.251 24.5403 218.437 24.5063 217.623 24.4046C217.792 28.407 217.86 34.0036 217.86 41.2282C217.86 44.2809 217.826 47.164 217.623 49.9114C218.437 49.7418 219.251 49.674 220.065 49.674C220.913 49.674 221.761 49.7418 222.643 49.9114C222.507 47.3336 222.439 44.7558 222.439 42.2119V38.6843Z" fill="white"/>
<path d="M241.403 29.3567C241.403 26.745 242.387 25.3543 244.015 25.3543C245.677 25.3543 246.457 26.5415 246.457 28.9836C246.457 32.0363 245.778 33.393 243.913 33.393C242.149 33.393 241.403 32.1041 241.403 29.3567ZM239.911 41.4317C237.604 42.2119 236.451 43.5347 236.451 45.5359C236.451 48.1476 238.961 49.9114 243.642 49.9114C249.272 49.9114 252.935 46.8587 252.935 42.7885C252.935 40.9569 252.189 39.5662 250.832 38.7861C249.883 38.2434 248.424 38.2095 246.423 38.1077C242.997 37.972 241.437 37.9381 241.437 36.3779C241.437 35.496 242.014 34.8515 242.929 34.7498H243.506C248.424 34.7498 251.138 32.579 251.138 29.1532C251.138 27.559 250.527 26.4397 249.374 25.6935C250.324 25.7274 251.443 25.7613 252.732 25.8292V24.1672C251.612 24.235 250.595 24.2689 249.679 24.2689C246.796 24.2689 244.829 23.9976 243.777 23.9976C239.402 23.9976 236.79 26.2701 236.79 29.4585C236.79 32.0702 238.282 33.6983 241.166 34.2749V34.6819C238.927 35.6317 237.774 36.9884 237.774 38.4808C237.774 39.7697 238.554 40.7534 239.944 41.1604L239.911 41.4317ZM241.403 41.6353L245.304 41.8388C247.746 41.9744 248.865 42.8902 248.865 44.9254C248.865 47.0962 247.101 48.4868 243.947 48.4868C241.301 48.4868 239.639 46.9605 239.639 44.654C239.639 43.3312 240.284 42.2119 241.403 41.6353ZM263.372 31.731V35.6656C263.372 37.7685 262.49 38.82 261.032 38.82C259.641 38.82 258.929 37.8364 258.929 35.903C258.929 33.5287 260.285 32.3415 263.372 31.731ZM263.508 38.5147C263.881 40.1428 264.966 40.9569 266.56 40.9569C267.612 40.9569 268.901 40.7194 270.122 40.2107V39.3627H270.02C268.019 39.3627 267.781 38.5147 267.781 36.1065V35.4621L267.883 29.5602V29.3906C267.883 25.897 265.644 23.9636 261.574 23.9636C259.437 23.9636 257.504 24.8116 255.537 26.5415C255.842 27.3216 256.079 28.0678 256.283 28.7122C257.334 26.9485 258.555 26.1005 260.082 26.1005C262.015 26.1005 263.304 27.3894 263.304 29.4585C263.304 29.6281 263.304 29.8316 263.27 30.0351C261.913 30.9509 260.014 31.324 257.911 32.0363C255.503 32.8503 254.35 34.1732 254.35 36.3439C254.35 39.2609 256.079 41.0586 258.996 41.0586C260.93 41.0586 262.558 40.1428 263.508 38.5147ZM273.204 26.3719V28.1696C273.204 32.7146 273.103 35.5299 273.103 36.5814C273.103 39.4984 274.663 41.0586 277.546 41.0586C278.801 41.0586 280.056 40.7194 281.447 40.1089V38.8539C280.666 39.0574 280.022 39.1931 279.479 39.1931C277.682 39.1931 277.614 37.6329 277.614 33.4948V32.138C277.614 30.4421 277.682 28.5427 277.749 26.3719C279.208 26.3719 280.327 26.3719 281.107 26.4058C281.073 26.1005 281.04 25.8292 281.04 25.5239C281.04 25.2525 281.073 24.9473 281.107 24.642C279.988 24.7438 278.903 24.7777 277.817 24.7777V23.7262C277.817 22.8104 277.885 21.0806 278.021 18.5027L277.648 18.2314C276.359 18.8758 274.832 19.5542 273.069 20.1987C273.17 21.1823 273.238 22.2677 273.238 23.4549C273.238 23.8958 273.238 24.3367 273.204 24.7777H272.831C272.255 24.7777 271.61 24.7098 270.898 24.642C270.966 24.9473 271 25.2525 271 25.5239C271 25.8292 270.966 26.1005 270.898 26.4058C271.508 26.3719 272.051 26.3719 272.594 26.3719H273.204ZM287.866 30.917V30.6117C287.866 27.2198 289.053 25.4561 290.987 25.4561C292.717 25.4561 293.632 27.0163 293.632 30.1029C293.632 30.3064 293.598 30.5778 293.598 30.917H287.866ZM287.866 32.579H298.245C298.279 32.2059 298.279 31.8328 298.279 31.4936C298.279 26.6432 295.701 23.9976 291.055 23.9976C286.035 23.9976 282.914 27.4573 282.914 32.2737C282.914 37.7685 286.069 41.0586 291.36 41.0586C293.666 41.0586 295.6 40.482 296.956 39.5323L297.703 37.5989L297.363 37.3615C296.007 38.4469 294.582 38.9557 293.022 38.9557C289.935 38.9557 287.866 36.5814 287.866 32.579Z" fill="#FF6D00"/>
<path d="M87.0898 53.3155C87.0898 53.597 87.0335 53.8441 86.9209 54.0568C86.8083 54.2695 86.6519 54.4478 86.4517 54.5917C86.2578 54.7356 86.0294 54.845 85.7667 54.9201C85.5102 54.9952 85.2349 55.0327 84.9409 55.0327H81.7223V48.3704H85.2881C85.5196 48.3704 85.7291 48.4204 85.9168 48.5205C86.1045 48.6206 86.264 48.752 86.3954 48.9146C86.5268 49.071 86.6268 49.2524 86.6957 49.4589C86.7707 49.659 86.8083 49.8623 86.8083 50.0688C86.8083 50.3941 86.7269 50.7006 86.5643 50.9884C86.4016 51.2699 86.1639 51.4795 85.8511 51.6171C86.2327 51.7297 86.533 51.933 86.752 52.227C86.9772 52.5148 87.0898 52.8776 87.0898 53.3155ZM85.7855 53.0715C85.7855 52.9527 85.7636 52.8401 85.7198 52.7337C85.6822 52.6211 85.6291 52.5242 85.5602 52.4428C85.4914 52.3615 85.4101 52.299 85.3163 52.2552C85.2224 52.2051 85.1192 52.1801 85.0066 52.1801H83.0173V53.9348H84.9409C85.0598 53.9348 85.1693 53.9129 85.2694 53.8691C85.3757 53.8254 85.4664 53.7659 85.5415 53.6909C85.6165 53.6095 85.676 53.5157 85.7198 53.4094C85.7636 53.303 85.7855 53.1904 85.7855 53.0715ZM83.0173 49.4776V51.1573H84.7439C84.9628 51.1573 85.1474 51.0822 85.2975 50.9321C85.4539 50.7819 85.5321 50.5755 85.5321 50.3128C85.5321 50.0563 85.4602 49.853 85.3163 49.7028C85.1786 49.5527 85.0066 49.4776 84.8002 49.4776H83.0173ZM91.1969 53.9348C91.5034 53.9348 91.7599 53.8723 91.9663 53.7472C92.179 53.622 92.3479 53.4594 92.473 53.2592C92.6044 53.059 92.6951 52.8307 92.7452 52.5742C92.8015 52.3115 92.8296 52.0425 92.8296 51.7672V48.3704H94.1152V51.7672C94.1152 52.2239 94.0589 52.6524 93.9463 53.0528C93.8399 53.4531 93.6679 53.8035 93.4302 54.1037C93.1987 54.404 92.8984 54.6417 92.5293 54.8169C92.1602 54.9921 91.7192 55.0796 91.2062 55.0796C90.6745 55.0796 90.221 54.9889 89.8456 54.8075C89.4765 54.6198 89.1763 54.3759 88.9448 54.0756C88.7133 53.7691 88.5444 53.4156 88.4381 53.0152C88.338 52.6149 88.2879 52.1989 88.2879 51.7672V48.3704H89.5829V51.7672C89.5829 52.0487 89.6079 52.3209 89.6579 52.5836C89.7142 52.8401 89.805 53.0684 89.9301 53.2686C90.0614 53.4688 90.2303 53.6314 90.4368 53.7565C90.6432 53.8754 90.8966 53.9348 91.1969 53.9348ZM95.701 55.0327V48.3704H96.9959V55.0327H95.701ZM98.6675 55.0327V48.3704H99.9624V53.8973H103.359V55.0327H98.6675ZM104.429 55.0327V48.3704H106.85C107.394 48.3704 107.87 48.4579 108.276 48.6331C108.689 48.8083 109.033 49.046 109.308 49.3462C109.584 49.6465 109.79 50 109.928 50.4066C110.065 50.807 110.134 51.2355 110.134 51.6922C110.134 52.1989 110.056 52.6587 109.899 53.0715C109.749 53.4782 109.53 53.8285 109.243 54.1225C108.955 54.4103 108.608 54.6355 108.201 54.7981C107.801 54.9545 107.35 55.0327 106.85 55.0327H104.429ZM108.83 51.6922C108.83 51.3731 108.786 51.0791 108.698 50.8101C108.611 50.5411 108.483 50.3096 108.314 50.1157C108.145 49.9218 107.935 49.7716 107.685 49.6653C107.441 49.5589 107.163 49.5058 106.85 49.5058H105.724V53.8973H106.85C107.169 53.8973 107.45 53.841 107.694 53.7284C107.945 53.6158 108.151 53.4625 108.314 53.2686C108.483 53.0684 108.611 52.8338 108.698 52.5648C108.786 52.2958 108.83 52.0049 108.83 51.6922ZM114.393 48.3704L116.035 51.5795L117.705 48.3704H119.104L116.683 52.7056V55.0327H115.397V52.6868L112.986 48.3704H114.393ZM122.513 55.0796C122.025 55.0796 121.581 54.9858 121.18 54.7981C120.786 54.6042 120.445 54.3508 120.157 54.0381C119.876 53.719 119.657 53.3562 119.501 52.9496C119.344 52.5429 119.266 52.1269 119.266 51.7015C119.266 51.2574 119.347 50.832 119.51 50.4254C119.679 50.0187 119.907 49.659 120.195 49.3462C120.489 49.0335 120.836 48.7864 121.237 48.6049C121.637 48.4173 122.072 48.3234 122.541 48.3234C123.023 48.3234 123.46 48.4235 123.855 48.6237C124.255 48.8176 124.596 49.0741 124.877 49.3932C125.159 49.7122 125.378 50.075 125.534 50.4817C125.691 50.8883 125.769 51.3012 125.769 51.7203C125.769 52.1645 125.688 52.5898 125.525 52.9965C125.362 53.3968 125.137 53.7534 124.849 54.0662C124.561 54.3727 124.217 54.6198 123.817 54.8075C123.417 54.9889 122.982 55.0796 122.513 55.0796ZM120.58 51.7015C120.58 51.9893 120.624 52.2677 120.711 52.5367C120.799 52.8057 120.924 53.0434 121.086 53.2498C121.255 53.4563 121.459 53.622 121.696 53.7472C121.94 53.8723 122.216 53.9348 122.522 53.9348C122.835 53.9348 123.11 53.8723 123.348 53.7472C123.592 53.6158 123.795 53.4438 123.958 53.2311C124.127 53.0184 124.252 52.7806 124.333 52.5179C124.421 52.2489 124.465 51.9768 124.465 51.7015C124.465 51.4138 124.418 51.1354 124.324 50.8664C124.236 50.5974 124.108 50.3597 123.939 50.1532C123.776 49.9468 123.573 49.7841 123.329 49.6653C123.091 49.5402 122.822 49.4776 122.522 49.4776C122.209 49.4776 121.931 49.5433 121.687 49.6747C121.443 49.7998 121.24 49.9687 121.077 50.1814C120.914 50.3878 120.789 50.6255 120.702 50.8945C120.62 51.1573 120.58 51.4263 120.58 51.7015ZM129.859 53.9348C130.165 53.9348 130.422 53.8723 130.628 53.7472C130.841 53.622 131.01 53.4594 131.135 53.2592C131.266 53.059 131.357 52.8307 131.407 52.5742C131.463 52.3115 131.492 52.0425 131.492 51.7672V48.3704H132.777V51.7672C132.777 52.2239 132.721 52.6524 132.608 53.0528C132.502 53.4531 132.33 53.8035 132.092 54.1037C131.861 54.404 131.56 54.6417 131.191 54.8169C130.822 54.9921 130.381 55.0796 129.868 55.0796C129.336 55.0796 128.883 54.9889 128.508 54.8075C128.138 54.6198 127.838 54.3759 127.607 54.0756C127.375 53.7691 127.206 53.4156 127.1 53.0152C127 52.6149 126.95 52.1989 126.95 51.7672V48.3704H128.245V51.7672C128.245 52.0487 128.27 52.3209 128.32 52.5836C128.376 52.8401 128.467 53.0684 128.592 53.2686C128.723 53.4688 128.892 53.6314 129.099 53.7565C129.305 53.8754 129.559 53.9348 129.859 53.9348ZM134.363 55.0327V48.3704H137.309C137.616 48.3704 137.897 48.436 138.154 48.5674C138.417 48.6925 138.642 48.8614 138.83 49.0741C139.017 49.2806 139.164 49.5183 139.271 49.7873C139.377 50.05 139.43 50.3159 139.43 50.5849C139.43 51.0165 139.321 51.4106 139.102 51.7672C138.889 52.1175 138.598 52.3709 138.229 52.5273L139.749 55.0327H138.295L136.934 52.7994H135.658V55.0327H134.363ZM135.658 51.664H137.281C137.4 51.664 137.51 51.6358 137.61 51.5795C137.716 51.5232 137.807 51.4482 137.882 51.3543C137.957 51.2542 138.016 51.1385 138.06 51.0071C138.104 50.8758 138.126 50.735 138.126 50.5849C138.126 50.4285 138.101 50.2846 138.051 50.1532C138.001 50.0219 137.932 49.9093 137.844 49.8154C137.763 49.7153 137.666 49.6403 137.553 49.5902C137.447 49.5339 137.338 49.5058 137.225 49.5058H135.658V51.664ZM143.421 55.0327V48.3704H145.842C146.386 48.3704 146.861 48.4579 147.268 48.6331C147.681 48.8083 148.025 49.046 148.3 49.3462C148.575 49.6465 148.782 50 148.919 50.4066C149.057 50.807 149.126 51.2355 149.126 51.6922C149.126 52.1989 149.048 52.6587 148.891 53.0715C148.741 53.4782 148.522 53.8285 148.234 54.1225C147.947 54.4103 147.6 54.6355 147.193 54.7981C146.793 54.9545 146.342 55.0327 145.842 55.0327H143.421ZM147.822 51.6922C147.822 51.3731 147.778 51.0791 147.69 50.8101C147.603 50.5411 147.474 50.3096 147.305 50.1157C147.137 49.9218 146.927 49.7716 146.677 49.6653C146.433 49.5589 146.154 49.5058 145.842 49.5058H144.716V53.8973H145.842C146.161 53.8973 146.442 53.841 146.686 53.7284C146.936 53.6158 147.143 53.4625 147.305 53.2686C147.474 53.0684 147.603 52.8338 147.69 52.5648C147.778 52.2958 147.822 52.0049 147.822 51.6922ZM150.419 55.0327V48.3704H153.366C153.672 48.3704 153.954 48.436 154.21 48.5674C154.473 48.6925 154.698 48.8614 154.886 49.0741C155.073 49.2806 155.22 49.5183 155.327 49.7873C155.433 50.05 155.486 50.3159 155.486 50.5849C155.486 51.0165 155.377 51.4106 155.158 51.7672C154.945 52.1175 154.654 52.3709 154.285 52.5273L155.805 55.0327H154.351L152.99 52.7994H151.714V55.0327H150.419ZM151.714 51.664H153.337C153.456 51.664 153.566 51.6358 153.666 51.5795C153.772 51.5232 153.863 51.4482 153.938 51.3543C154.013 51.2542 154.073 51.1385 154.116 51.0071C154.16 50.8758 154.182 50.735 154.182 50.5849C154.182 50.4285 154.157 50.2846 154.107 50.1532C154.057 50.0219 153.988 49.9093 153.9 49.8154C153.819 49.7153 153.722 49.6403 153.61 49.5902C153.503 49.5339 153.394 49.5058 153.281 49.5058H151.714V51.664ZM161.567 53.8973V55.0327H156.941V48.3704H161.483V49.5058H158.236V51.1104H161.042V52.1613H158.236V53.8973H161.567ZM164.754 48.3704H165.899L168.432 55.0327H167.1L166.48 53.3718H164.153L163.543 55.0327H162.211L164.754 48.3704ZM166.246 52.4616L165.326 49.8436L164.369 52.4616H166.246ZM174.878 55.0327V50.6224L173.16 53.9067H172.457L170.739 50.6224V55.0327H169.444V48.3704H170.833L172.804 52.1613L174.793 48.3704H176.172V55.0327H174.878ZM181.814 50.1157C181.77 50.0719 181.689 50.0125 181.57 49.9374C181.458 49.8623 181.317 49.7904 181.148 49.7216C180.985 49.6465 180.807 49.584 180.613 49.5339C180.419 49.4839 180.222 49.4589 180.022 49.4589C179.665 49.4589 179.399 49.5245 179.224 49.6559C179.049 49.7873 178.962 49.9718 178.962 50.2095C178.962 50.3472 178.993 50.4629 179.055 50.5567C179.124 50.6443 179.221 50.7225 179.346 50.7913C179.471 50.8601 179.628 50.9227 179.816 50.979C180.009 51.0353 180.232 51.0947 180.482 51.1573C180.807 51.2449 181.101 51.3387 181.364 51.4388C181.633 51.5389 181.858 51.664 182.039 51.8141C182.227 51.9643 182.371 52.1457 182.471 52.3584C182.571 52.5648 182.621 52.8213 182.621 53.1278C182.621 53.4844 182.552 53.791 182.415 54.0474C182.283 54.2977 182.102 54.501 181.871 54.6574C181.645 54.8138 181.383 54.9295 181.082 55.0046C180.788 55.0734 180.479 55.1078 180.153 55.1078C179.653 55.1078 179.159 55.0327 178.671 54.8826C178.183 54.7324 177.745 54.5197 177.357 54.2445L177.929 53.1278C177.986 53.1841 178.086 53.2592 178.23 53.353C178.38 53.4406 178.555 53.5313 178.755 53.6252C178.955 53.7128 179.177 53.7878 179.421 53.8504C179.665 53.9129 179.916 53.9442 180.172 53.9442C180.885 53.9442 181.242 53.7159 181.242 53.2592C181.242 53.1153 181.201 52.9933 181.12 52.8933C181.039 52.7932 180.923 52.7056 180.773 52.6305C180.622 52.5554 180.441 52.4866 180.228 52.4241C180.016 52.3615 179.778 52.2927 179.515 52.2176C179.196 52.1301 178.918 52.0362 178.68 51.9361C178.449 51.8298 178.255 51.7078 178.098 51.5702C177.942 51.4263 177.823 51.2636 177.742 51.0822C177.667 50.8945 177.629 50.6725 177.629 50.416C177.629 50.0782 177.692 49.7779 177.817 49.5152C177.942 49.2524 178.114 49.0335 178.333 48.8583C178.558 48.6831 178.818 48.5518 179.112 48.4642C179.406 48.3704 179.722 48.3234 180.059 48.3234C180.529 48.3234 180.96 48.3985 181.354 48.5486C181.749 48.6925 182.093 48.8646 182.387 49.0647L181.814 50.1157Z" fill="white"/>
</svg>
