<svg width="407" height="379" viewBox="0 0 407 379" fill="none" xmlns="http://www.w3.org/2000/svg">
<path opacity="0.1" d="M138.639 151.859H80.9163C78.872 151.859 77.2148 153.518 77.2148 155.565V167.862C77.2148 169.908 78.872 171.567 80.9163 171.567H138.639C140.684 171.567 142.341 169.908 142.341 167.862V155.565C142.341 153.518 140.684 151.859 138.639 151.859Z" fill="#6478FF"/>
<path opacity="0.1" d="M206.796 171.572H149.073C147.028 171.572 145.371 173.231 145.371 175.278V187.575C145.371 189.621 147.028 191.28 149.073 191.28H206.796C208.84 191.28 210.497 189.621 210.497 187.575V175.278C210.497 173.231 208.84 171.572 206.796 171.572Z" fill="#6478FF"/>
<path opacity="0.1" d="M274.96 191.28H217.237C215.192 191.28 213.535 192.939 213.535 194.985V207.283C213.535 209.329 215.192 210.988 217.237 210.988H274.96C277.004 210.988 278.661 209.329 278.661 207.283V194.985C278.661 192.939 277.004 191.28 274.96 191.28Z" fill="#6478FF"/>
<path opacity="0.1" d="M138.639 122.297H80.9163C78.872 122.297 77.2148 123.956 77.2148 126.003V138.3C77.2148 140.346 78.872 142.005 80.9163 142.005H138.639C140.684 142.005 142.341 140.346 142.341 138.3V126.003C142.341 123.956 140.684 122.297 138.639 122.297Z" fill="#6478FF"/>
<path opacity="0.1" d="M206.796 142.005H149.073C147.028 142.005 145.371 143.664 145.371 145.711V158.008C145.371 160.054 147.028 161.713 149.073 161.713H206.796C208.84 161.713 210.497 160.054 210.497 158.008V145.711C210.497 143.664 208.84 142.005 206.796 142.005Z" fill="#6478FF"/>
<path opacity="0.1" d="M274.96 161.719H217.237C215.192 161.719 213.535 163.378 213.535 165.424V177.722C213.535 179.768 215.192 181.427 217.237 181.427H274.96C277.004 181.427 278.661 179.768 278.661 177.722V165.424C278.661 163.378 277.004 161.719 274.96 161.719Z" fill="#6478FF"/>
<path opacity="0.1" d="M350.682 151.859H292.959C290.915 151.859 289.258 153.518 289.258 155.565V167.862C289.258 169.908 290.915 171.567 292.959 171.567H350.682C352.727 171.567 354.384 169.908 354.384 167.862V155.565C354.384 153.518 352.727 151.859 350.682 151.859Z" fill="#6478FF"/>
<path opacity="0.1" d="M418.839 171.572H361.115C359.071 171.572 357.414 173.231 357.414 175.278V187.575C357.414 189.621 359.071 191.28 361.115 191.28H418.839C420.883 191.28 422.54 189.621 422.54 187.575V175.278C422.54 173.231 420.883 171.572 418.839 171.572Z" fill="#6478FF"/>
<path opacity="0.1" d="M350.682 122.297H292.959C290.915 122.297 289.258 123.956 289.258 126.003V138.3C289.258 140.346 290.915 142.005 292.959 142.005H350.682C352.727 142.005 354.384 140.346 354.384 138.3V126.003C354.384 123.956 352.727 122.297 350.682 122.297Z" fill="#6478FF"/>
<path opacity="0.1" d="M418.839 142.005H361.115C359.071 142.005 357.414 143.664 357.414 145.711V158.008C357.414 160.054 359.071 161.713 361.115 161.713H418.839C420.883 161.713 422.54 160.054 422.54 158.008V145.711C422.54 143.664 420.883 142.005 418.839 142.005Z" fill="#6478FF"/>
<path opacity="0.1" d="M138.639 82.8765H80.9163C78.872 82.8765 77.2148 84.5353 77.2148 86.5817V98.8792C77.2148 100.926 78.872 102.584 80.9163 102.584H138.639C140.684 102.584 142.341 100.926 142.341 98.8792V86.5817C142.341 84.5353 140.684 82.8765 138.639 82.8765Z" fill="#6478FF"/>
<path opacity="0.1" d="M206.796 102.584H149.073C147.028 102.584 145.371 104.243 145.371 106.29V118.587C145.371 120.634 147.028 122.292 149.073 122.292H206.796C208.84 122.292 210.497 120.634 210.497 118.587V106.29C210.497 104.243 208.84 102.584 206.796 102.584Z" fill="#6478FF"/>
<path opacity="0.1" d="M274.96 122.297H217.237C215.192 122.297 213.535 123.956 213.535 126.003V138.3C213.535 140.346 215.192 142.005 217.237 142.005H274.96C277.004 142.005 278.661 140.346 278.661 138.3V126.003C278.661 123.956 277.004 122.297 274.96 122.297Z" fill="#6478FF"/>
<path opacity="0.1" d="M138.639 53.3091H80.9163C78.872 53.3091 77.2148 54.968 77.2148 57.0143V69.3119C77.2148 71.3582 78.872 73.0171 80.9163 73.0171H138.639C140.684 73.0171 142.341 71.3582 142.341 69.3119V57.0143C142.341 54.968 140.684 53.3091 138.639 53.3091Z" fill="#6478FF"/>
<path opacity="0.1" d="M206.796 73.0225H149.073C147.028 73.0225 145.371 74.6813 145.371 76.7277V89.0252C145.371 91.0716 147.028 92.7305 149.073 92.7305H206.796C208.84 92.7305 210.497 91.0716 210.497 89.0252V76.7277C210.497 74.6813 208.84 73.0225 206.796 73.0225Z" fill="#6478FF"/>
<path opacity="0.1" d="M274.96 92.7305H217.237C215.192 92.7305 213.535 94.3894 213.535 96.4357V108.733C213.535 110.78 215.192 112.438 217.237 112.438H274.96C277.004 112.438 278.661 110.78 278.661 108.733V96.4357C278.661 94.3894 277.004 92.7305 274.96 92.7305Z" fill="#6478FF"/>
<path opacity="0.1" d="M350.682 82.8765H292.959C290.915 82.8765 289.258 84.5353 289.258 86.5817V98.8792C289.258 100.926 290.915 102.584 292.959 102.584H350.682C352.727 102.584 354.384 100.926 354.384 98.8792V86.5817C354.384 84.5353 352.727 82.8765 350.682 82.8765Z" fill="#6478FF"/>
<path opacity="0.1" d="M418.839 102.584H361.115C359.071 102.584 357.414 104.243 357.414 106.29V118.587C357.414 120.634 359.071 122.292 361.115 122.292H418.839C420.883 122.292 422.54 120.634 422.54 118.587V106.29C422.54 104.243 420.883 102.584 418.839 102.584Z" fill="#6478FF"/>
<path opacity="0.1" d="M350.682 53.3096H292.959C290.915 53.3096 289.258 54.9685 289.258 57.0148V69.3123C289.258 71.3587 290.915 73.0176 292.959 73.0176H350.682C352.727 73.0176 354.384 71.3587 354.384 69.3123V57.0148C354.384 54.9685 352.727 53.3096 350.682 53.3096Z" fill="#6478FF"/>
<path opacity="0.1" d="M418.839 73.0225H361.115C359.071 73.0225 357.414 74.6813 357.414 76.7277V89.0252C357.414 91.0716 359.071 92.7305 361.115 92.7305H418.839C420.883 92.7305 422.54 91.0716 422.54 89.0252V76.7277C422.54 74.6813 420.883 73.0225 418.839 73.0225Z" fill="#6478FF"/>
<path opacity="0.1" d="M272.5 379C422.998 379 545 356.785 545 329.381C545 301.977 422.998 279.762 272.5 279.762C122.002 279.762 0 301.977 0 329.381C0 356.785 122.002 379 272.5 379Z" fill="#6478FF"/>
<path d="M119.56 160.077L96.6445 300.706L200.264 289.735L195.781 277.767L114.828 284.499L133.758 159.828L119.56 160.077Z" fill="#253072"/>
<path d="M92.6602 0.498684L232.148 0L272.5 305.693L132.514 324.643L92.6602 0.498684Z" fill="#253072"/>
<path d="M107.855 12.2178H220.442L259.798 296.468L143.724 312.426L107.855 12.2178Z" fill="white"/>
<path d="M214.037 283.682C214.744 285.038 215.272 286.504 216.194 287.726C218.884 291.326 223.99 291.89 227.821 294.239C228.013 294.336 228.171 294.489 228.274 294.678C228.449 295.092 228.06 295.525 227.686 295.785C224.782 297.824 220.971 297.869 217.419 297.844C216.225 297.887 215.031 297.773 213.867 297.505C211.989 297.007 210.38 295.695 208.527 295.161C207.566 294.921 206.582 294.782 205.593 294.747L201.702 294.483C200.666 294.468 199.64 294.278 198.668 293.92C198.184 293.734 197.754 293.429 197.419 293.032C197.085 292.635 196.856 292.16 196.755 291.651C196.645 290.823 196.999 290.02 197.208 289.212C197.706 287.297 197.552 284.983 199.042 283.677C199.655 283.206 200.359 282.867 201.109 282.679C203.817 281.766 206.581 281.03 209.384 280.475C211.69 280.021 213.015 281.717 214.037 283.682Z" fill="#253072"/>
<path d="M170.026 294.468C170.126 295.53 170.156 296.747 169.389 297.49C168.911 297.887 168.334 298.146 167.72 298.238C164.038 299.096 159.933 299.156 156.73 297.151C156.397 296.961 156.103 296.708 155.863 296.408C155.596 295.999 155.445 295.525 155.425 295.037C155.31 293.625 155.744 292.234 156.137 290.873C157.069 287.642 157.776 284.352 158.255 281.024C158.294 280.749 167.655 282.52 168.278 283.447C169.06 284.594 169.065 287.347 169.274 288.713C169.59 290.622 169.84 292.54 170.026 294.468Z" fill="#253072"/>
<path d="M204.869 164.7L207.36 187.884C207.858 192.622 208.381 197.384 208.037 202.136C207.639 207.622 206.105 213.107 206.752 218.543C207.006 220.658 207.584 222.732 207.669 224.861C207.685 226.277 207.613 227.693 207.455 229.1C206.329 243.168 209.891 257.126 211.883 271.094C212.204 272.817 212.274 274.578 212.093 276.321C211.834 278.091 211.315 280.415 212.89 281.253L198.104 286.619C196.216 284.25 197.466 280.564 197.108 277.557C196.779 274.85 195.294 272.436 194.502 269.828C193.785 267.484 193.635 265.016 193.401 262.582C192.111 249.332 188.15 236.426 187.224 223.146C187.194 221.863 187.027 220.588 186.726 219.341C186.228 217.69 185.231 216.249 184.504 214.698C183.388 212.369 182.84 209.816 182.302 207.293L179.139 192.457C175.94 197.224 176.07 203.428 175.437 209.143C174.55 217.122 172.568 224.966 170.954 232.845C170.579 234.541 170.298 236.255 170.112 237.982C169.693 242.605 170.525 247.272 170.082 251.89C169.584 257.241 167.337 262.462 167.88 267.813C168.179 270.775 169.315 273.578 170.082 276.45C170.849 279.323 171.228 282.474 170.057 285.212C165.965 283.708 161.57 283.222 157.249 283.796C152.501 278.934 151.659 272.152 151.336 265.345C151.012 258.538 151.794 251.721 150.947 244.978C150.698 242.984 150.309 241.039 150.245 239.049C150.035 232.671 153.099 226.702 154.624 220.503C155.995 214.923 156.126 209.109 155.007 203.473C154.26 199.748 152.975 196.132 152.516 192.357C151.894 187.066 152.95 181.735 154.011 176.509C154.723 172.983 155.431 169.458 156.238 165.952C157.104 162.187 158.136 158.342 160.452 155.26C164.159 150.328 170.739 148.139 176.892 148.618C183.044 149.096 188.788 151.899 193.869 155.39C197.874 158.069 201.564 161.192 204.869 164.7Z" fill="#192534"/>
<path d="M188.34 75.925C188.061 76.3743 187.867 76.8713 187.768 77.3911C187.643 78.4135 188.266 79.351 188.764 80.2436C189.402 81.3905 189.893 82.6137 190.224 83.884C190.461 84.6703 190.534 85.4969 190.438 86.3126C190.316 86.9252 190.098 87.5145 189.79 88.058C188.829 89.9131 187.404 91.6286 185.466 92.4015C183.965 92.9547 182.329 93.021 180.788 92.591C179.258 92.1574 177.811 91.4697 176.509 90.5564C175.411 89.8599 174.424 89.0026 173.58 88.0131C172.774 86.9311 172.095 85.7598 171.557 84.5223C170.521 82.3531 169.47 80.0342 169.659 77.6555C169.669 77.4398 169.709 77.2265 169.779 77.0221C169.94 76.6527 170.166 76.315 170.446 76.0248C172.572 73.5035 173.661 70.2684 173.495 66.9736L180.753 68.6243C182.352 68.9883 183.952 69.3524 185.531 69.8062C186.826 70.1802 188.819 70.6988 189.661 71.8557C190.503 73.0127 188.913 74.8678 188.34 75.925Z" fill="#FBBEBE"/>
<path d="M184.453 74.6882C191.739 74.6882 197.645 68.776 197.645 61.483C197.645 54.19 191.739 48.2778 184.453 48.2778C177.168 48.2778 171.262 54.19 171.262 61.483C171.262 68.776 177.168 74.6882 184.453 74.6882Z" fill="#FBBEBE"/>
<path d="M182.334 88.1227C182.892 86.901 184.097 86.128 185.198 85.36C186.299 84.592 187.415 83.6096 187.629 82.2782C187.642 81.977 187.717 81.6817 187.849 81.4104C188.272 80.7721 189.278 81.0913 189.881 81.56C191.346 82.702 192.342 84.3228 193.313 85.9036C194.57 87.826 195.646 89.861 196.527 91.9825C197.927 95.6778 198.096 99.7121 198.25 103.657C198.39 107.247 198.524 110.893 197.653 114.373C197.105 116.578 196.158 118.717 196.103 120.986C195.939 129.229 193.079 137.109 192.88 145.352C192.865 147.735 192.985 150.118 193.239 152.488L193.707 157.839C186.464 157.423 179.24 156.787 172.037 155.929C171.827 153.465 171.125 151.077 170.482 148.693C167.851 138.948 166.164 128.971 165.446 118.902C165.062 113.556 164.669 108.23 164.076 102.904C163.543 98.0615 162.497 93.1894 163.124 88.3571C163.453 86.1607 164.143 84.034 165.167 82.0637C165.49 81.2788 166.047 80.6121 166.761 80.1538C167.118 79.9812 167.497 79.8587 167.887 79.7897C169.016 79.5607 170.163 79.4256 171.314 79.3858C171.596 79.362 171.879 79.3891 172.151 79.4656C172.636 79.7078 173.035 80.0945 173.292 80.5727C175.512 83.9131 178.653 86.5361 182.334 88.1227Z" fill="#F2F2F2"/>
<path d="M176.215 87.065C177.141 88.3915 179.104 88.7057 179.961 90.0571C180.25 90.6219 180.469 91.2197 180.614 91.8374C181.137 93.508 182.193 94.9592 182.836 96.5899C183.762 98.9337 183.787 101.527 183.797 104.045C183.888 106.051 183.734 108.061 183.339 110.029C183.04 111.261 182.552 112.433 182.193 113.65C181.584 115.719 181.358 117.882 181.525 120.033C181.525 120.498 181.649 120.954 181.884 121.355C182.222 121.755 182.663 122.055 183.159 122.222C184.619 122.866 186.148 123.524 187.743 123.374C188.07 123.364 188.386 123.258 188.654 123.07C188.839 122.902 188.991 122.7 189.103 122.477L190.099 120.791C191.001 119.25 191.942 117.525 191.593 115.764C191.34 114.856 190.959 113.988 190.463 113.186C189.826 111.885 189.283 110.54 188.839 109.162C187.249 104.589 185.64 99.951 185.282 95.1237C185.071 93.2866 185.275 91.4255 185.879 89.6781C186.347 88.6027 186.936 87.5838 187.633 86.6411C187.475 86.4293 187.257 86.2705 187.007 86.1858C186.757 86.1012 186.487 86.0948 186.233 86.1674C185.732 86.3224 185.247 86.5244 184.783 86.7708C183.319 87.3891 181.695 87.1647 180.215 86.7409C179.637 86.5713 178.721 85.9928 178.123 86.0327C177.919 86.0577 176.25 87.1248 176.215 87.065Z" fill="#6478FF"/>
<path d="M187.876 87.0103C187.578 86.7709 187.114 86.5515 186.85 86.8307C186.762 86.9518 186.697 87.089 186.661 87.2347C186.402 87.9328 185.64 88.2769 184.947 88.5462C184.255 88.8155 183.507 88.9651 183.089 88.4515C182.957 88.2515 182.892 88.0146 182.904 87.7751C182.915 87.5357 183.003 87.3062 183.154 87.12C183.46 86.7504 183.83 86.4381 184.245 86.1974C186.536 84.5783 188.097 82.1197 188.589 79.3555C189.231 79.8667 189.657 80.6026 189.78 81.415C189.944 82.2079 189.964 83.0258 190.128 83.8187C190.372 84.9557 190.915 86.0179 191.04 87.1698C191.105 87.7832 191.04 88.4016 191.04 89.015C191.062 89.6147 191.132 90.2117 191.249 90.8003C190.083 89.5635 189.261 88.1124 187.876 87.0103Z" fill="#F2F2F2"/>
<path d="M177.796 83.6246C177.298 83.1508 176.799 82.702 176.301 82.2183C174.115 80.0824 172.465 77.4595 171.484 74.5635C170.846 75.0622 170.144 75.7204 170.129 76.5582C170.186 77.151 170.414 77.7144 170.786 78.1789C172.67 81.1487 173.914 84.4795 174.438 87.9581C174.707 87.5373 175.08 87.1928 175.521 86.9578C175.961 86.7229 176.455 86.6054 176.954 86.6167C177.741 86.6167 181.273 88.7111 181.527 88.1825C181.901 87.3547 178.394 84.1881 177.796 83.6246Z" fill="#F2F2F2"/>
<path d="M188.917 79.6549C193.603 84.3247 199.339 87.8013 205.645 89.7931C206.272 89.93 206.853 90.2253 207.334 90.6509C207.693 91.0997 207.934 91.631 208.036 92.1968C209.252 96.9542 209.66 101.876 210.064 106.768C210.17 107.577 210.153 108.398 210.014 109.202C209.72 110.508 208.794 111.566 207.882 112.548C205.022 115.615 201.759 118.822 201.276 122.991C201.239 123.794 201.144 124.594 200.992 125.384C200.743 126.312 200.19 127.13 199.851 128.032C198.188 132.476 201.949 137.856 199.657 141.995C200.898 144.381 201.749 146.95 202.178 149.605C202.255 150.612 202.485 151.601 202.86 152.538C203.543 153.964 204.948 154.871 206.054 156.028C209.426 159.489 209.84 164.785 210.039 169.618C210.164 172.34 210.124 175.467 208.046 177.252C206.846 178.295 205.207 178.634 203.638 178.893C201.55 179.242 199.279 179.491 197.43 178.459C196.105 177.721 195.204 176.43 194.342 175.183C192.708 172.804 191.069 170.43 189.519 167.992C187.068 164.147 184.757 159.754 185.464 155.245C185.265 159.858 184.294 164.506 182.032 168.525C179.77 172.545 176.129 175.901 171.71 177.227C167.291 178.554 162.125 177.616 158.832 174.385C157.757 173.277 156.834 172.031 156.087 170.68C154.213 167.466 152.845 163.983 152.032 160.352C151.818 159.409 151.658 158.357 152.132 157.514C152.356 157.116 152.699 156.801 152.934 156.407C153.721 155.066 152.964 153.375 152.201 152.009C151.041 152.119 150.209 150.752 150.313 149.585C150.418 148.418 151.115 147.406 151.608 146.344C153.053 143.212 152.734 139.567 152.037 136.191C151.339 132.815 150.298 129.458 150.378 126.013C150.463 122.367 147.842 119.086 145.845 116.039C144.729 114.323 143.429 112.728 142.457 110.927C140.432 107.139 139.963 102.709 141.152 98.58C141.849 96.4598 142.764 94.4177 143.882 92.486L145.526 89.3992C145.832 88.6616 146.307 88.0065 146.913 87.4867C147.519 86.9669 148.238 86.5971 149.013 86.4071L160.386 81.9189C161.841 81.4217 163.221 80.7306 164.491 79.8643C165.881 78.8171 166.917 77.3709 168.242 76.2539C168.436 76.0508 168.667 75.8884 168.924 75.7762C169.181 75.6641 169.457 75.6043 169.737 75.6006C170.803 75.6953 171.182 77.0418 171.291 78.094C171.54 80.4478 173.284 82.4425 173.877 84.7315C177.085 97.3731 183.875 109.032 185.738 121.938C187.831 116.907 189.923 111.865 192.603 107.127C193.026 106.447 193.381 105.727 193.664 104.978C193.986 103.897 194.106 102.766 194.018 101.642C193.883 98.3954 193.022 95.2238 192.17 92.0871C191.064 87.8183 190.067 83.8837 188.917 79.6549Z" fill="#253072"/>
<path d="M210.589 118.283C210.808 120.407 211.023 122.537 211.416 124.636C211.875 127.065 212.572 129.438 213.264 131.812C213.603 133.146 214.087 134.439 214.709 135.667C214.935 136.023 215.114 136.407 215.242 136.809C215.486 137.806 214.928 138.804 214.689 139.801C213.972 142.793 216.124 146.119 214.769 148.877C214.36 149.715 213.648 150.408 213.379 151.306C213.065 152.338 213.379 153.44 213.543 154.507C213.967 157.499 212.946 160.541 211.939 163.419L210.226 168.276C208.661 165.364 207.082 162.421 204.92 159.923C204.148 159.025 203.306 158.193 202.594 157.245C201.531 155.756 200.692 154.12 200.103 152.388C198.582 148.273 197.713 143.945 197.527 139.562C197.404 138.315 197.548 137.057 197.951 135.871C198.28 135.186 198.65 134.52 199.057 133.877C200.392 131.468 200.666 128.616 200.641 125.863C200.616 123.11 200.322 120.347 200.641 117.61C200.901 115.324 201.576 113.105 202.634 111.062C203.257 109.739 204.184 108.582 205.339 107.686C206.2 107.04 207.251 106.698 208.328 106.713C209.957 106.808 209.583 108.209 209.722 109.561L210.589 118.283Z" fill="#253072"/>
<path d="M137.316 111.496C136.299 114.488 135.383 117.507 134.566 120.552C133.769 123.544 133.056 126.553 132.429 129.578C132.106 130.908 131.926 132.269 131.891 133.637C131.954 135.231 132.227 136.808 132.703 138.33C135.911 149.905 141.759 160.581 148.345 170.62C150.227 168.27 152.462 166.228 154.971 164.566C155.176 164.444 155.348 164.273 155.469 164.067C155.532 163.873 155.551 163.667 155.523 163.465C155.495 163.263 155.423 163.07 155.31 162.9C153.491 159.17 150.612 155.884 149.705 151.829C149.327 150.144 149.312 148.389 148.883 146.713C148.33 144.544 147.095 142.559 146.811 140.335C146.507 137.911 147.309 135.268 146.173 133.119C148.49 132.216 149.83 129.828 150.811 127.539C151.86 125.197 152.61 122.732 153.043 120.203C153.725 115.354 152.777 110.415 150.348 106.165C149.161 104.045 147.639 102.131 145.839 100.5C145.247 99.9663 143.847 98.4353 142.985 98.4503C141.834 98.4752 141.465 100.34 141.137 101.178C139.807 104.599 138.491 108.025 137.316 111.496Z" fill="#253072"/>
<path d="M157.954 167.314C158.103 167.423 158.272 167.573 158.233 167.753C158.193 167.932 158.048 167.977 157.919 168.052C157.245 168.53 156.742 169.212 156.484 169.997C155.656 171.864 154.934 173.777 154.322 175.727C153.207 174.055 151.896 172.523 150.416 171.164C149.28 170.116 148.01 169.124 147.402 167.708C147.402 167.668 150.013 165.738 150.252 165.528C150.984 164.875 151.906 163.065 152.663 162.666C153.52 162.217 154.337 163.978 154.989 164.686C155.887 165.659 156.88 166.539 157.954 167.314Z" fill="#FBBEBE"/>
<path d="M198.459 59.4182C198.425 58.7649 198.34 58.0418 197.842 57.6179C197.404 57.3151 196.878 57.1693 196.347 57.204C193.443 57.1093 190.439 57.598 187.699 56.6206C185.896 55.9773 184.356 54.7405 182.598 53.9726C180.839 53.2046 178.587 53.0001 177.168 54.2917C176.092 55.2891 175.798 56.82 175.424 58.2313C174.601 61.3461 173.137 64.2542 171.125 66.7688C169.775 66.3499 168.808 65.1431 168.186 63.8764C166.068 59.5578 167.11 54.4014 168.614 49.8235C169.112 48.2876 169.665 46.7666 170.218 45.2506L171.434 41.8994C173.029 41.7426 174.511 41.0043 175.598 39.8249L176.121 41.0965C177.472 41.0479 178.776 40.5867 179.858 39.775C180.276 40.5629 181.352 40.7724 182.224 40.5181C183.096 40.2637 183.848 39.775 184.715 39.5207C187.031 38.7727 189.502 39.9246 191.933 40.0543C192.962 40.0292 193.992 40.0592 195.017 40.144C197.887 40.6078 199.914 43.3107 200.791 46.0834C201.374 47.9285 201.857 50.1975 203.675 50.8508C203.715 51.549 202.48 51.6836 202.375 52.3468C202.363 52.568 202.415 52.7879 202.525 52.9802L204.193 56.5657C203.396 56.7662 202.556 56.7245 201.782 56.446C201.03 58.2164 198.534 60.7696 198.459 59.4182Z" fill="#192534"/>
<path d="M283.033 67.2229C283.879 69.9573 284.544 72.7443 285.026 75.5659C285.385 77.6803 285.594 80.0291 284.383 81.7944C288.996 74.8477 293.814 67.6916 300.823 63.2085C299.396 61.6593 298.31 59.8268 297.636 57.8302C296.962 55.8335 296.716 53.7173 296.912 51.619C296.952 51.2001 291.158 53.3894 290.715 53.6387C288.682 54.7707 286.819 56.177 284.837 57.3888C283.81 58.0122 279.536 59.4883 279.496 60.3809C279.496 60.9544 281.195 62.7098 281.514 63.3132C282.139 64.5668 282.648 65.8756 283.033 67.2229Z" fill="#FBBEBE"/>
<path d="M304.467 329.221C303.328 328.418 301.993 327.939 300.604 327.833C299.214 327.728 297.823 328.001 296.576 328.623C294.319 329.79 292.8 331.999 290.747 333.495C287.22 336.058 282.562 336.263 278.432 337.649C277.336 338.018 276.171 338.567 275.707 339.644C275.552 340.097 275.49 340.576 275.525 341.054C275.56 341.531 275.692 341.997 275.912 342.422C276.602 343.962 277.812 345.21 279.329 345.947C281.182 346.835 283.314 346.875 285.367 346.9L303.201 347.109C308.681 347.174 314.196 347.239 319.641 347.922C320.911 348.082 322.286 348.256 323.407 347.633C325.231 346.635 325.44 344.112 325.3 342.033C324.933 336.764 323.757 331.583 321.813 326.673C321.599 326.13 321.315 325.511 320.712 325.412C320.284 325.392 319.864 325.527 319.527 325.791C314.495 328.783 308.123 330.473 302.773 328.079" fill="white"/>
<path d="M313.396 215.322C311.404 226.906 312.704 238.81 314.946 250.345C315.358 252.641 315.902 254.912 316.575 257.147C317.377 259.69 318.458 262.134 319.21 264.692C321.123 271.175 320.854 278.106 320.57 284.874L319.265 315.667C319.155 318.25 319.056 320.894 319.833 323.357C320.147 324.354 320.53 325.601 319.738 326.274C319.428 326.497 319.066 326.636 318.687 326.678C315.122 327.336 311.44 326.783 308.225 325.107L307.872 293.999C307.762 284.41 307.648 274.78 306.173 265.31C305.002 257.78 302.97 250.35 302.835 242.73C302.696 234.751 304.649 226.877 306.641 219.142C307.07 217.486 308.634 216.275 309.919 215.152C310.368 214.71 310.914 214.378 311.513 214.185C312.111 214.02 313.028 214.818 313.396 215.322Z" fill="#253072"/>
<path opacity="0.1" d="M313.396 215.322C311.404 226.906 312.704 238.81 314.946 250.345C315.358 252.641 315.902 254.912 316.575 257.147C317.377 259.69 318.458 262.134 319.21 264.692C321.123 271.175 320.854 278.106 320.57 284.874L319.265 315.667C319.155 318.25 319.056 320.894 319.833 323.357C320.147 324.354 320.53 325.601 319.738 326.274C319.428 326.497 319.066 326.636 318.687 326.678C315.122 327.336 311.44 326.783 308.225 325.107L307.872 293.999C307.762 284.41 307.648 274.78 306.173 265.31C305.002 257.78 302.97 250.35 302.835 242.73C302.696 234.751 304.649 226.877 306.641 219.142C307.07 217.486 308.634 216.275 309.919 215.152C310.368 214.71 310.914 214.378 311.513 214.185C312.111 214.02 313.028 214.818 313.396 215.322Z" fill="black"/>
<path d="M275.988 179.118C275.251 182.155 276.815 185.301 276.64 188.423C276.541 190.313 275.799 192.198 276.142 194.053C276.486 195.908 277.811 197.305 278.519 199.005C279.034 200.425 279.307 201.922 279.326 203.433C279.53 207.164 279.365 210.914 279.226 214.629C278.992 220.862 278.817 227.131 279.639 233.31C280.355 238.662 281.809 243.89 283.959 248.844C284.61 250.191 285.148 251.591 285.568 253.028C285.843 254.367 286.026 255.723 286.116 257.087C286.589 261.523 287.779 265.853 289.638 269.908C290.908 272.686 293.125 274.895 293.827 277.842C294.495 280.665 294.047 283.642 294.53 286.499C294.883 288.619 295.745 290.623 296.224 292.718C296.846 295.426 296.831 298.233 297.145 300.996C298.042 308.975 301.664 316.954 299.502 324.693C299.068 326.249 298.396 327.83 298.699 329.416C298.849 330.194 299.228 330.962 299.058 331.735C298.919 332.393 298.411 332.902 298.151 333.525C297.653 334.692 298.181 336.078 299.068 336.981C300.014 337.822 301.114 338.473 302.306 338.896C305.978 340.467 309.779 342.063 313.764 342.028C314.248 342.054 314.731 341.965 315.174 341.768C315.891 341.394 316.245 340.582 316.549 339.834L318.591 334.777C318.841 334.163 319.09 333.445 318.746 332.877C318.507 332.565 318.217 332.295 317.889 332.079C316.24 330.688 316.614 328.089 317.052 326C318.172 320.633 318.792 315.174 318.905 309.693C319.125 298.762 317.326 287.896 315.533 277.109C314.91 273.364 314.282 269.594 313.042 266.003C311.801 262.413 309.973 258.957 310.272 255.227C310.591 251.197 309.545 246.974 310.272 242.999C310.999 239.025 312.15 235.135 312.892 231.165C313.854 226.014 314.093 220.763 314.387 215.536C314.511 213.402 314.671 211.198 315.667 209.303C316.25 208.196 317.097 207.248 317.75 206.176C319.433 203.389 319.702 199.933 321.311 197.1C322.074 195.759 323.125 194.577 323.683 193.141C324.075 192.008 324.28 190.819 324.291 189.62C324.448 186.61 324.281 183.592 323.792 180.619C315.312 176.299 305.907 174.115 296.393 174.255C292.751 174.315 289.07 174.684 285.652 175.946C282.394 177.158 279.425 178.858 275.988 179.118Z" fill="#253072"/>
<path d="M296.413 337.111C294.948 338.936 295.048 341.544 294.112 343.693C292.976 346.301 290.445 347.972 288.044 349.493L273.099 358.968C272.282 359.467 271.405 360.08 271.106 361.008C270.964 361.6 270.99 362.22 271.181 362.798C271.537 364.049 272.202 365.191 273.115 366.118C274.027 367.045 275.157 367.728 276.402 368.104C277.724 368.419 279.083 368.558 280.442 368.518L287.162 368.608C289.209 368.688 291.26 368.608 293.295 368.368C295.158 368.099 296.971 367.565 298.824 367.226C302.197 366.613 305.664 366.668 309.042 366.074C311.11 365.667 313.153 365.139 315.159 364.493C317.6 363.76 320.086 362.997 322.179 361.546C322.755 361.195 323.222 360.691 323.529 360.09C323.882 359.267 323.688 358.325 323.489 357.452L320.281 343.339C320.099 342.164 319.672 341.04 319.025 340.043C318.313 339.095 317.032 338.467 315.921 338.871C315.463 339.08 315.03 339.341 314.631 339.649C312.987 340.731 310.88 340.911 308.937 340.571C307.682 340.347 306.023 340.003 305.012 339.17C304.244 338.537 304.015 337.554 303.363 336.836C302.905 336.366 302.354 335.997 301.745 335.754C301.136 335.511 300.482 335.398 299.827 335.424C299.171 335.45 298.529 335.613 297.941 335.904C297.353 336.195 296.832 336.606 296.413 337.111Z" fill="white"/>
<path d="M286.722 65.2776C296.662 65.2776 304.721 57.2109 304.721 47.2601C304.721 37.3094 296.662 29.2427 286.722 29.2427C276.781 29.2427 268.723 37.3094 268.723 47.2601C268.723 57.2109 276.781 65.2776 286.722 65.2776Z" fill="#FBBEBE"/>
<path d="M272.838 48.3174C274.562 47.3499 274.562 44.5623 276.325 43.6347C278.089 42.7072 280.092 44.3179 281.222 45.9436C282.871 48.3245 284.015 51.0178 284.585 53.8577C284.745 54.6656 284.894 55.5483 285.502 56.1118C286.11 56.6753 286.907 56.7451 287.684 56.8249C289.959 57.051 292.237 57.2571 294.519 57.4433C297.059 57.6478 299.74 57.8123 302.046 56.7202C302.956 56.3128 303.738 55.6645 304.308 54.8451C304.764 54.0584 305.091 53.2029 305.274 52.3118C306.465 47.7788 307.665 43.1909 307.765 38.5033C307.805 36.5684 307.636 34.5637 306.704 32.8681C306.161 31.8708 305.364 31.003 305.14 29.9059C304.916 28.8088 305.638 27.4125 306.774 27.5322C305.747 27.5745 304.724 27.38 303.785 26.9637C302.883 26.465 302.215 25.3929 302.534 24.4154C300.004 24.7396 298.16 22.2362 296.188 20.6155C295.867 20.2971 295.434 20.1179 294.982 20.1168C294.635 20.2033 294.301 20.3323 293.986 20.5008C292.989 20.8498 291.948 20.1866 290.927 19.8974C288.187 19.1294 284.705 20.9845 282.672 18.9897C282.866 20.2614 281.307 21.1141 280.022 21.0892C278.737 21.0643 277.411 20.5905 276.196 21.0194C276.372 21.3417 276.475 21.699 276.497 22.0657C276.519 22.4324 276.46 22.7994 276.324 23.1406C276.188 23.4817 275.978 23.7886 275.709 24.0391C275.441 24.2897 275.121 24.4778 274.771 24.59L275.374 25.9065C274.753 26.0308 274.179 26.3264 273.717 26.7599C273.255 27.1935 272.923 27.7477 272.759 28.36C272.096 30.9781 272.26 34.6983 272.42 37.3912C272.5 38.5731 273.65 47.8735 272.838 48.3174Z" fill="#192534"/>
<path d="M288.201 70.4843C279.159 80.6625 276.858 94.9897 274.93 108.479L272.09 128.397C271.353 133.563 270.596 138.729 269.953 143.911C269.505 147.456 269.086 151.057 269.574 154.597C269.958 157.39 270.89 160.083 271.667 162.771C273.689 169.821 274.695 177.124 274.656 184.459C275.259 182.683 277.346 181.965 279.179 181.566C294.562 178.225 310.61 179.941 324.941 186.458C327.457 179.402 326.984 171.682 327.686 164.222C328.682 153.585 332.115 143.277 333.131 132.66C333.505 128.706 333.55 124.731 333.589 120.757C333.619 117.839 333.649 114.892 333.041 112.035C332.364 108.873 330.934 105.926 329.455 103.058C325.365 95.0875 320.82 87.3585 315.845 79.9095C313.34 76.1593 310.728 72.484 308.008 68.8835C306.63 67.0584 305.224 65.2531 303.789 63.4678C302.399 61.7374 301.796 60.2364 299.589 61.2736C295.42 63.2285 291.235 67.0683 288.201 70.4843Z" fill="#6478FF"/>
<path d="M293.38 155.201C291.174 155.28 288.965 155.21 286.769 154.991C285.14 154.832 283.476 154.592 281.887 154.991C281.196 155.165 280.549 155.483 279.989 155.924C279.781 156.109 279.632 156.35 279.559 156.619C279.487 156.888 279.494 157.172 279.58 157.436C279.666 157.701 279.828 157.935 280.045 158.109C280.261 158.283 280.524 158.39 280.801 158.417L282.505 158.567C283.586 158.661 284.711 158.771 285.553 159.564C285.899 159.876 286.119 160.303 286.171 160.766C286.276 161.928 285.269 162.561 284.368 163.045C283.086 163.647 281.901 164.437 280.851 165.389C280.029 166.184 279.512 167.243 279.391 168.381C279.387 168.482 279.41 168.583 279.457 168.673C279.505 168.762 279.575 168.838 279.661 168.892C279.746 168.946 279.845 168.977 279.946 168.981C280.048 168.985 280.148 168.962 280.238 168.914C282.231 167.917 283.531 164.96 285.718 165.454C283.729 166.084 282.025 167.396 280.905 169.159C280.629 169.58 280.503 170.082 280.548 170.583C280.593 171.085 280.805 171.557 281.151 171.922C281.497 172.287 281.957 172.525 282.454 172.597C282.952 172.668 283.46 172.569 283.894 172.315C284.218 172.126 284.531 171.918 284.831 171.692C286.313 170.491 287.64 169.111 288.782 167.583C287.187 170.949 285.573 174.889 287.407 178.235C287.498 178.419 287.641 178.572 287.818 178.677C287.994 178.781 288.198 178.832 288.403 178.823C288.981 178.763 289.15 178.22 289.245 177.741C289.544 176.2 289.618 174.575 290.376 173.203C292.129 170.022 296.453 169.712 299.746 168.161C303.697 166.326 306.402 162.377 307.493 158.158C307.875 156.927 307.941 155.621 307.687 154.358C306.955 151.52 303.458 150.867 301.211 152.238C298.456 153.989 296.857 155.091 293.38 155.201Z" fill="#FBBEBE"/>
<path opacity="0.1" d="M289.88 99.3829C293.367 104.774 299.42 107.811 304.611 111.596C305.877 112.421 306.982 113.473 307.869 114.698C309.179 116.722 309.363 119.295 309.094 121.679C308.756 124.826 307.744 127.853 306.743 130.855L304.566 137.363C303.186 141.492 301.761 145.706 299.136 149.177C298.463 150.059 297.681 151.002 297.711 152.109C297.769 152.748 297.989 153.363 298.349 153.894C299.189 155.266 300.296 156.456 301.605 157.391C302.913 158.327 304.396 158.989 305.966 159.34C306.906 159.579 307.891 159.579 308.83 159.34C310.175 158.941 311.187 157.844 312.123 156.806C316.607 151.854 321.09 146.833 324.328 141.023C327.492 135.353 329.385 129.055 331.129 122.816C331.847 120.519 332.347 118.16 332.623 115.77C332.992 111.282 331.816 106.793 329.893 102.739C327.97 98.6847 325.325 95.0144 322.6 91.4489C320.028 87.9466 317.17 84.6639 314.056 81.6347C308.636 76.5631 302.005 73.581 294.752 76.4584C289.631 78.493 287.713 82.7368 287.255 88.1725C286.867 92.0971 287.79 96.0398 289.88 99.3829Z" fill="black"/>
<path d="M291.698 98.0163C295.185 103.407 301.243 106.444 306.429 110.229C307.691 111.063 308.79 112.121 309.672 113.351C310.982 115.376 311.166 117.944 310.897 120.332C310.554 123.479 309.547 126.506 308.541 129.508L306.364 135.991C304.984 140.12 303.559 144.329 300.934 147.805C300.266 148.688 299.484 149.625 299.514 150.737C299.569 151.376 299.789 151.989 300.152 152.518C300.991 153.89 302.097 155.081 303.405 156.017C304.712 156.953 306.195 157.617 307.764 157.968C308.705 158.207 309.692 158.207 310.633 157.968C311.978 157.574 312.985 156.472 313.926 155.44C318.41 150.483 322.893 145.466 326.131 139.656C329.295 133.986 331.188 127.688 332.931 121.445C333.651 119.15 334.152 116.792 334.426 114.403C334.795 109.915 333.619 105.427 331.701 101.367C329.783 97.3082 327.133 93.6429 324.408 90.0773C321.827 86.5933 318.963 83.3291 315.844 80.318C310.429 75.2514 303.798 72.2643 296.545 75.1467C291.419 77.1813 289.506 81.4201 289.042 86.8608C288.677 90.7705 289.61 94.6917 291.698 98.0163Z" fill="#6478FF"/>
<path d="M401.851 276.89C401.854 278.19 401.721 279.487 401.452 280.759C401.402 280.999 401.348 281.258 401.293 281.463C399.878 287.143 395.888 291.297 391.125 291.561C390.966 291.561 390.806 291.561 390.627 291.561C385.59 291.561 381.331 287.212 379.926 281.223C379.886 281.064 379.851 280.904 379.817 280.725C379.548 279.452 379.414 278.155 379.418 276.855C379.418 268.741 384.435 262.168 390.627 262.168C396.819 262.168 401.851 268.791 401.851 276.89Z" fill="#253072"/>
<path opacity="0.1" d="M401.85 276.89C401.854 278.19 401.72 279.487 401.452 280.759C401.402 280.999 401.347 281.258 401.292 281.462C401.123 281.462 400.959 281.462 400.794 281.462C399.561 281.396 398.334 281.229 397.128 280.964C396.059 281.295 394.966 281.545 393.86 281.712C393.011 281.84 392.156 281.92 391.299 281.951H390.432C389.406 281.951 388.381 281.883 387.363 281.747C385.719 281.527 384.103 281.125 382.546 280.55C381.694 280.834 380.826 281.067 379.946 281.248C379.906 281.088 379.871 280.929 379.836 280.749C379.567 279.477 379.434 278.18 379.438 276.88C379.438 268.766 384.454 262.193 390.646 262.193C396.839 262.193 401.85 268.791 401.85 276.89Z" fill="black"/>
<path d="M425.762 249.532C425.767 245.961 424.93 242.44 423.321 239.254L410.139 243.358L421.712 236.546C419.771 233.74 417.225 231.406 414.262 229.716C411.3 228.026 407.996 227.023 404.595 226.782C404.053 225.959 403.459 225.173 402.816 224.428L383.886 230.327L399.414 221.186C396.443 218.904 392.957 217.391 389.263 216.779C385.569 216.167 381.781 216.476 378.234 217.678C374.688 218.881 371.492 220.94 368.93 223.673C366.368 226.407 364.519 229.73 363.545 233.349L379.761 252.035L362.17 239.299C357.714 242.462 354.542 247.123 353.232 252.432C351.921 257.741 352.56 263.344 355.031 268.222C357.502 273.099 361.641 276.925 366.694 279.003C371.747 281.081 377.378 281.272 382.561 279.543C387.248 281.267 392.371 281.409 397.147 279.946C400.477 280.68 403.928 280.657 407.247 279.879C410.567 279.101 413.67 277.588 416.328 275.452C418.986 273.315 421.132 270.609 422.608 267.533C424.084 264.456 424.852 261.088 424.855 257.675C424.855 257.177 424.855 256.678 424.806 256.179C425.451 254.023 425.773 251.783 425.762 249.532Z" fill="#6478FF"/>
<path opacity="0.1" d="M425.369 253.761C418.408 252.44 411.269 252.349 404.276 253.491C396.36 254.803 388.27 257.685 380.529 255.581C375.985 254.344 372.06 251.482 367.621 249.891C363.338 248.395 358.725 248.119 354.295 249.093C352.607 253.136 352.117 257.58 352.884 261.893C353.651 266.207 355.643 270.209 358.621 273.42C361.6 276.631 365.439 278.916 369.679 280.002C373.92 281.088 378.384 280.928 382.536 279.543C387.224 281.267 392.347 281.409 397.123 279.946C400.452 280.68 403.904 280.657 407.223 279.879C410.542 279.101 413.645 277.588 416.304 275.452C418.962 273.315 421.108 270.609 422.584 267.533C424.059 264.456 424.827 261.088 424.831 257.675C424.831 257.177 424.831 256.678 424.781 256.179C425.021 255.384 425.218 254.577 425.369 253.761Z" fill="black"/>
</svg>
