<svg width="49" height="49" viewBox="0 0 49 49" fill="none" xmlns="http://www.w3.org/2000/svg">
<path d="M33.5043 0H7.01172V48.3099H41.2962V8.57113L33.5043 0Z" fill="#F47920"/>
<path d="M41.2956 8.57113H33.5037V0H31.9453V10.1295H41.2956V8.57113Z" fill="white"/>
<path d="M44.4125 16.3628H42.854H17.6837L11.8398 20.2588L17.6837 24.1549H42.854H44.4125C46.5608 24.1549 48.3085 22.4071 48.3085 20.2588C48.3085 18.1105 46.5606 16.3628 44.4125 16.3628ZM17.1407 18.5975V21.9192L14.6495 20.2588L17.1407 18.5975ZM42.854 22.5963H18.6991V21.0379H40.5164V19.4795H18.6991V17.921H42.854V22.5963ZM44.4125 22.5963V17.9212C45.7012 17.9212 46.7501 18.9701 46.7501 20.2588C46.7501 21.5476 45.7012 22.5963 44.4125 22.5963Z" fill="white"/>
<path d="M0 40.5186H37.4012V29.6099H0V40.5186ZM1.55842 31.1683H3.11683V33.5059H4.67525V31.1683H6.23367V33.5059H7.79208V31.1683H9.3505V35.0643H10.9089V31.1683H12.4673V33.5059H14.0258V31.1683H15.5842V33.5059H17.1426V31.1683H18.701V35.0643H20.2594V31.1683H21.8178V33.5059H23.3762V31.1683H24.9347V33.5059H26.4931V31.1683H28.0515V35.0643H29.6099V31.1683H35.8434V35.0643V38.9604H1.55842V31.1683Z" fill="white"/>
<path d="M33.5056 32.7266C32.2168 32.7266 31.168 33.7754 31.168 35.0642C31.168 36.3529 32.2168 37.4018 33.5056 37.4018C34.7943 37.4018 35.8432 36.3529 35.8432 35.0642C35.8432 33.7754 34.7943 32.7266 33.5056 32.7266ZM33.5056 35.8434C33.0762 35.8434 32.7264 35.4944 32.7264 35.0642C32.7264 34.634 33.0762 34.285 33.5056 34.285C33.935 34.285 34.2848 34.634 34.2848 35.0642C34.2848 35.4942 33.935 35.8434 33.5056 35.8434Z" fill="white"/>
<path d="M29.6108 3.89648H10.9102V5.4549H29.6108V3.89648Z" fill="white"/>
<path d="M29.6108 7.79199H10.9102V9.35041H29.6108V7.79199Z" fill="white"/>
<path d="M29.6108 11.6885H10.9102V13.2469H29.6108V11.6885Z" fill="white"/>
</svg>
