<svg width="51" height="51" viewBox="0 0 51 51" fill="none" xmlns="http://www.w3.org/2000/svg">
<path d="M49.8938 21.2642L46.5131 7.74081C46.3018 6.93786 45.9004 6.24049 45.3298 5.66993C44.7593 5.09937 44.0619 4.69784 43.259 4.48667L29.7355 1.10594C28.2143 0.725629 26.5873 1.16929 25.4673 2.28919L1.31533 26.4411C-0.438392 28.1949 -0.438492 31.0263 1.31533 32.7803L18.2196 49.6845C19.9734 51.4384 22.805 51.4383 24.5587 49.6845L48.7107 25.5326C49.8306 24.4126 50.2742 22.7855 49.8938 21.2642ZM33.0108 17.989C31.257 16.2352 31.2571 13.4036 33.0108 11.6499C34.7646 9.89605 37.596 9.89605 39.3499 11.6499C41.1038 13.4037 41.1037 16.2351 39.3499 17.989C37.5962 19.7427 34.7646 19.7428 33.0108 17.989Z" fill="#FF6C6C"/>
</svg>
