<svg width="26" height="18" viewBox="0 0 26 18" fill="none" xmlns="http://www.w3.org/2000/svg">
<path d="M25.0991 2.81657C24.8038 1.7152 23.9382 0.847011 22.8405 0.550447C20.8351 0 12.8133 0 12.8133 0C12.8133 0 4.7918 0 2.78639 0.529578C1.70978 0.825828 0.82306 1.71536 0.527747 2.81657C0 4.82818 0 9 0 9C0 9 0 13.1928 0.527747 15.1834C0.823373 16.2846 1.68867 17.1528 2.78655 17.4494C4.81291 18 12.8136 18 12.8136 18C12.8136 18 20.8351 18 22.8405 17.4704C23.9383 17.174 24.8038 16.3058 25.0994 15.2046C25.627 13.1928 25.627 9.02118 25.627 9.02118C25.627 9.02118 25.6481 4.82818 25.0991 2.81657V2.81657ZM10.2593 12.8541V5.14593L16.9298 9L10.2593 12.8541Z" fill="white"/>
</svg>
